<svg width="41" height="40" viewBox="0 0 41 40" fill="none" xmlns="http://www.w3.org/2000/svg">
<path fill-rule="evenodd" clip-rule="evenodd" d="M20.461 5.00002C12.1767 5.00002 5.46096 11.7157 5.46096 20C5.46096 28.2843 12.1767 35 20.461 35C28.7452 35 35.461 28.2843 35.461 20C35.461 11.7157 28.7452 5.00002 20.461 5.00002ZM2.12762 20C2.12762 9.8748 10.3357 1.66669 20.461 1.66669C30.5862 1.66669 38.7943 9.8748 38.7943 20C38.7943 30.1252 30.5862 38.3334 20.461 38.3334C10.3357 38.3334 2.12762 30.1252 2.12762 20Z" fill="url(#paint0_linear_3_100)"/>
<path fill-rule="evenodd" clip-rule="evenodd" d="M19.2824 12.1548C19.9333 11.504 20.9886 11.504 21.6394 12.1548L28.3061 18.8215C28.957 19.4724 28.957 20.5277 28.3061 21.1785L21.6394 27.8452C20.9886 28.4961 19.9333 28.4961 19.2824 27.8452C18.6315 27.1943 18.6315 26.139 19.2824 25.4882L24.7706 20L19.2824 14.5119C18.6315 13.861 18.6315 12.8057 19.2824 12.1548Z" fill="url(#paint1_linear_3_100)"/>
<path fill-rule="evenodd" clip-rule="evenodd" d="M12.1276 20C12.1276 19.0795 12.8738 18.3333 13.7943 18.3333H27.1276C28.0481 18.3333 28.7943 19.0795 28.7943 20C28.7943 20.9205 28.0481 21.6666 27.1276 21.6666H13.7943C12.8738 21.6666 12.1276 20.9205 12.1276 20Z" fill="url(#paint2_linear_3_100)"/>
<defs>
<linearGradient id="paint0_linear_3_100" x1="20.461" y1="1.66669" x2="20.461" y2="38.3334" gradientUnits="userSpaceOnUse">
<stop stop-color="#A5A8F5"/>
<stop offset="0.5" stop-color="#B8BAF5"/>
<stop offset="1" stop-color="#9296F7"/>
</linearGradient>
<linearGradient id="paint1_linear_3_100" x1="23.7943" y1="11.6667" x2="23.7943" y2="28.3334" gradientUnits="userSpaceOnUse">
<stop stop-color="#A5A8F5"/>
<stop offset="0.5" stop-color="#B8BAF5"/>
<stop offset="1" stop-color="#9296F7"/>
</linearGradient>
<linearGradient id="paint2_linear_3_100" x1="20.461" y1="18.3333" x2="20.461" y2="21.6666" gradientUnits="userSpaceOnUse">
<stop stop-color="#A5A8F5"/>
<stop offset="0.5" stop-color="#B8BAF5"/>
<stop offset="1" stop-color="#9296F7"/>
</linearGradient>
</defs>
</svg>
