<svg width="61" height="60" viewBox="0 0 61 60" fill="none" xmlns="http://www.w3.org/2000/svg">
<path d="M56.7965 10.9808C56.6267 10.7823 56.3779 10.6681 56.1161 10.6681H13.7986L12.0731 4.88533C11.9589 4.50508 11.6098 4.245 11.2134 4.245H4.59532C4.09967 4.245 3.69849 4.64618 3.69849 5.14183C3.69849 5.63748 4.09967 6.03866 4.59532 6.03866H10.5449L21.4468 42.5721C21.448 42.5763 21.4516 42.5799 21.4528 42.5841L22.807 47.1902C21.9521 48.0398 21.4223 49.2159 21.4223 50.5127C21.4223 53.1015 23.5275 55.2079 26.1146 55.2079C28.6185 55.2079 30.6639 53.2301 30.7901 50.753H42.544C42.5434 50.7859 42.5392 50.8182 42.5392 50.8517C42.5392 53.4381 44.6432 55.5427 47.229 55.5427C49.8149 55.5427 51.9195 53.4381 51.9195 50.8517C51.9195 48.2652 49.8149 46.1606 47.229 46.1606C45.3164 46.1606 43.6704 47.3134 42.9416 48.9594H30.5342C30.3046 48.3047 29.9345 47.7026 29.4293 47.1974C28.5438 46.3119 27.3671 45.8234 26.1164 45.8234C26.1158 45.8234 26.1152 45.8234 26.1152 45.8234C25.4999 45.8234 24.9134 45.9454 24.3747 46.1618L23.5078 43.2124H51.4131C51.8561 43.2124 52.2328 42.889 52.2991 42.4513L57.0027 11.7001C57.0422 11.4418 56.9669 11.1793 56.7965 10.9808ZM47.229 47.9549C48.826 47.9549 50.1258 49.2547 50.1258 50.8523C50.1258 52.4498 48.826 53.7496 47.229 53.7496C45.6321 53.7496 44.3328 52.4498 44.3328 50.8523C44.3328 49.2547 45.6321 47.9549 47.229 47.9549ZM26.1152 47.6177H26.1158C26.8876 47.6177 27.6135 47.919 28.1599 48.4661C28.707 49.0132 29.0077 49.7408 29.0077 50.5139C29.0077 52.1138 27.7097 53.4154 26.114 53.4154C24.5158 53.4154 23.2154 52.1138 23.2154 50.5139C23.216 48.9169 24.5164 47.6177 26.1152 47.6177ZM50.6424 41.4194H22.9798L21.2842 35.6509C21.2627 35.578 21.2304 35.5116 21.1933 35.4488L14.3337 12.4618H55.0715L50.6424 41.4194Z" fill="white"/>
</svg>
