<svg width="1920" height="626" viewBox="0 0 1920 626" fill="none" xmlns="http://www.w3.org/2000/svg">
<mask id="mask0_2_192" style="mask-type:alpha" maskUnits="userSpaceOnUse" x="0" y="0" width="1921" height="626">
<path d="M929.02 601.349C500.272 556.994 131.188 591.397 0.239807 614.143V0H1920.24V601.349C1768.48 619.83 1357.77 645.703 929.02 601.349Z" fill="#C4C4C4"/>
</mask>
<g mask="url(#mask0_2_192)">
<rect x="0.460938" y="-84.4578" width="1920" height="1080" fill="url(#paint0_linear_2_192)"/>
<path d="M439.01 308.072C574.471 331.264 559.267 429.625 534.732 475.907C486.275 644.513 465.906 818.347 461.778 884.189C490.372 1426.35 821.706 907.565 825.603 827.408C828.721 763.282 958.771 777.654 1023.41 792.855C1657.44 850.596 1465.24 561.867 1351.42 470.901C1237.6 379.935 1442.18 498.101 1443.42 64.5778C1444.66 -368.946 1192.13 -378.678 1078.32 -146.109C964.515 86.4595 806.405 9.45396 572.461 53.9319C338.516 98.4099 269.683 279.083 439.01 308.072Z" stroke="url(#paint1_linear_2_192)" stroke-opacity="0.8"/>
<path d="M446.879 309.638C580.214 332.465 565.248 429.282 541.098 474.837C493.402 640.797 473.353 811.903 469.29 876.71C497.435 1410.36 823.568 899.72 827.404 820.82C830.473 757.701 958.482 771.848 1022.1 786.811C1646.18 843.645 1457 559.448 1344.97 469.91C1232.93 380.372 1434.3 496.684 1435.52 69.9656C1436.75 -356.752 1188.18 -366.332 1076.16 -137.414C964.135 91.5038 808.507 15.7071 578.235 59.4868C347.963 103.267 280.21 281.104 446.879 309.638Z" stroke="url(#paint2_linear_2_192)" stroke-opacity="0.8"/>
<path d="M456.388 311.529C587.154 333.916 572.476 428.868 548.792 473.545C502.015 636.307 482.352 804.115 478.367 867.674C505.97 1391.04 825.818 890.24 829.581 812.861C832.59 750.958 958.132 764.832 1020.53 779.507C1632.58 835.246 1447.05 556.526 1337.17 468.713C1227.29 380.9 1424.78 494.97 1425.98 76.4753C1427.18 -342.02 1183.4 -351.415 1073.54 -126.908C963.677 97.5985 811.048 23.2623 585.213 66.1985C359.378 109.135 292.931 283.545 456.388 311.529Z" stroke="url(#paint3_linear_2_192)" stroke-opacity="0.8"/>
<path d="M464.312 313.105C592.937 335.126 578.5 428.522 555.203 472.468C509.192 632.565 489.851 797.625 485.932 860.144C513.083 1374.94 827.693 882.34 831.394 806.228C834.355 745.339 957.841 758.986 1019.21 773.42C1621.25 828.246 1438.75 554.09 1330.67 467.715C1222.6 381.341 1416.85 493.543 1418.03 81.9002C1419.21 -329.742 1179.42 -338.983 1071.36 -118.153C963.294 102.678 813.165 29.5586 591.028 71.7917C368.891 114.025 303.532 285.579 464.312 313.105Z" stroke="url(#paint4_linear_2_192)" stroke-opacity="0.8"/>
<path d="M471.784 314.591C598.39 336.266 584.179 428.197 561.248 471.453C515.96 629.036 496.922 791.506 493.064 853.042C519.789 1359.76 829.461 874.89 833.104 799.973C836.018 740.04 957.565 753.472 1017.97 767.68C1610.56 821.646 1430.93 551.793 1324.55 466.774C1218.16 381.756 1409.37 492.196 1410.53 87.0157C1411.69 -318.165 1175.67 -327.261 1069.3 -109.897C962.933 107.467 815.16 35.4957 596.51 77.0658C377.861 118.636 313.527 287.497 471.784 314.591Z" stroke="url(#paint5_linear_2_192)" stroke-opacity="0.8"/>
<path d="M480.813 316.387C604.979 337.644 591.043 427.803 568.553 470.226C524.137 624.772 505.467 784.111 501.683 844.462C527.893 1341.41 831.598 865.889 835.17 792.416C838.028 733.637 957.233 746.811 1016.48 760.745C1597.64 813.67 1421.47 549.018 1317.14 465.637C1212.81 382.257 1400.33 490.57 1401.47 93.1967C1402.61 -304.176 1171.13 -313.097 1066.82 -99.9215C962.498 113.254 817.573 42.6695 603.136 83.4385C388.7 124.208 325.606 289.815 480.813 316.387Z" stroke="url(#paint6_linear_2_192)" stroke-opacity="0.8"/>
<path d="M488.877 317.99C610.864 338.875 597.172 427.452 575.077 469.13C531.44 620.965 513.097 777.507 509.38 836.8C535.13 1325.03 833.506 857.85 837.015 785.666C839.823 727.919 956.937 740.861 1015.14 754.551C1586.11 806.548 1413.03 546.539 1310.53 464.622C1208.03 382.705 1392.26 489.117 1393.38 98.7168C1394.5 -291.683 1167.08 -300.447 1064.6 -91.0126C962.109 118.422 819.727 49.0762 609.053 89.1299C398.379 129.184 336.393 291.885 488.877 317.99Z" stroke="url(#paint7_linear_2_192)" stroke-opacity="0.8"/>
<path d="M495.964 319.401C616.036 339.957 602.559 427.144 580.811 468.167C537.859 617.619 519.804 771.704 516.146 830.065C541.491 1310.63 835.183 850.786 838.637 779.735C841.401 722.894 956.676 735.633 1013.97 749.108C1575.97 800.289 1405.61 544.362 1304.72 463.73C1203.83 383.099 1385.17 487.841 1386.27 103.569C1387.37 -280.703 1163.52 -289.329 1062.65 -83.1821C961.767 122.965 821.62 54.7077 614.253 94.1326C406.887 133.558 345.874 293.705 495.964 319.401Z" stroke="url(#paint8_linear_2_192)" stroke-opacity="0.8"/>
<path d="M504.527 321.104C622.285 341.264 609.067 426.77 587.739 467.004C545.615 613.575 527.908 764.691 524.32 821.928C549.177 1293.24 837.209 842.249 840.597 772.567C843.307 716.822 956.361 729.316 1012.55 742.531C1563.72 792.725 1396.64 541.73 1297.7 462.652C1198.75 383.575 1376.59 486.298 1377.67 109.431C1378.75 -267.435 1159.22 -275.896 1060.29 -73.7213C961.354 128.453 823.907 61.5114 620.537 100.177C417.166 138.842 357.329 295.903 504.527 321.104Z" stroke="url(#paint9_linear_2_192)" stroke-opacity="0.8"/>
<path d="M511.662 322.522C627.493 342.352 614.491 426.459 593.512 466.033C552.078 610.205 534.661 758.846 531.131 815.146C555.581 1278.74 838.897 835.134 842.23 766.593C844.896 711.761 956.099 724.05 1011.37 737.049C1553.51 786.421 1389.17 539.536 1291.84 461.753C1194.52 383.97 1369.45 485.011 1370.51 114.316C1371.57 -256.38 1155.64 -264.702 1058.32 -65.8378C961.01 133.026 825.814 67.1805 625.773 105.213C425.733 143.245 366.875 297.734 511.662 322.522Z" stroke="url(#paint10_linear_2_192)" stroke-opacity="0.8"/>
<path d="M518.391 323.86C632.403 343.379 619.606 426.165 598.956 465.119C558.173 607.027 541.029 753.335 537.555 808.751C561.621 1265.06 840.489 828.426 843.769 760.961C846.394 706.989 955.851 719.085 1010.25 731.88C1543.89 780.477 1382.13 537.467 1286.33 460.906C1190.53 384.344 1362.71 483.799 1363.76 118.922C1364.8 -245.954 1152.26 -254.145 1056.47 -58.403C960.685 137.339 827.611 72.5272 630.711 109.962C433.81 147.397 375.877 299.462 518.391 323.86Z" stroke="url(#paint11_linear_2_192)" stroke-opacity="0.8"/>
<path d="M526.522 325.479C638.337 344.621 625.787 425.812 605.535 464.015C565.537 603.188 548.723 746.677 545.316 801.025C568.919 1248.55 842.413 820.321 845.63 754.156C848.204 701.224 955.552 713.087 1008.9 725.635C1532.26 773.296 1373.61 534.969 1279.66 459.883C1185.71 384.797 1354.57 482.335 1355.6 124.49C1356.62 -233.356 1148.17 -241.389 1054.23 -49.4186C960.293 142.552 829.783 78.9886 636.677 115.702C443.571 152.416 386.754 301.55 526.522 325.479Z" stroke="url(#paint12_linear_2_192)" stroke-opacity="0.8"/>
<path d="M533.251 326.816C643.248 345.648 630.902 425.518 610.979 463.1C571.631 600.01 555.091 741.166 551.74 794.63C574.958 1234.87 844.005 813.611 847.17 748.523C849.702 696.451 955.304 708.122 1007.79 720.466C1522.63 767.352 1366.57 532.9 1274.14 459.035C1181.72 385.169 1347.84 481.122 1348.85 129.096C1349.85 -222.93 1144.79 -230.833 1052.38 -41.9846C959.968 146.864 831.581 84.3345 641.615 120.451C451.649 156.568 395.756 303.277 533.251 326.816Z" stroke="url(#paint13_linear_2_192)" stroke-opacity="0.8"/>
<path d="M539.642 328.088C647.911 346.623 635.759 425.24 616.149 462.232C577.419 596.993 561.139 735.933 557.84 788.557C580.694 1221.89 845.518 807.241 848.633 743.174C851.125 691.92 955.069 703.407 1006.73 715.558C1513.49 761.708 1359.88 530.937 1268.9 458.231C1177.93 385.525 1341.44 479.971 1342.43 133.471C1343.43 -213.029 1141.58 -220.808 1050.62 -34.9238C959.66 150.96 833.288 89.4123 646.304 124.962C459.32 160.512 404.304 304.918 539.642 328.088Z" stroke="url(#paint14_linear_2_192)" stroke-opacity="0.8"/>
<path d="M547.363 329.623C653.547 347.802 641.628 424.904 622.396 461.182C584.413 593.347 568.446 729.609 565.211 781.22C587.624 1206.2 847.345 799.544 850.4 736.711C852.844 686.445 954.785 697.711 1005.45 709.627C1502.45 754.887 1351.79 528.563 1262.57 457.259C1173.35 385.954 1333.71 478.58 1334.68 138.757C1335.66 -201.066 1137.71 -208.695 1048.5 -26.3929C959.287 155.909 835.351 95.5472 651.97 130.412C468.59 165.277 414.634 306.9 547.363 329.623Z" stroke="url(#paint15_linear_2_192)" stroke-opacity="0.8"/>
<path d="M553.798 330.903C658.242 348.784 646.519 424.623 627.602 460.308C590.241 590.308 574.535 724.339 571.353 775.105C593.4 1193.13 848.867 793.128 851.872 731.325C854.276 681.882 954.549 692.963 1004.38 704.684C1493.24 749.203 1345.05 526.585 1257.29 456.448C1169.53 386.311 1327.27 477.42 1328.23 143.162C1329.19 -191.097 1134.47 -198.601 1046.73 -19.2839C958.977 160.033 837.07 100.66 656.692 134.953C476.314 169.247 423.242 308.551 553.798 330.903Z" stroke="url(#paint16_linear_2_192)" stroke-opacity="0.8"/>
<path d="M559.865 332.11C662.67 349.711 651.131 424.359 632.511 459.484C595.736 587.443 580.277 719.37 577.145 769.339C598.846 1180.8 850.303 787.08 853.261 726.246C855.627 677.58 954.325 688.487 1003.38 700.024C1484.56 743.845 1338.7 524.721 1252.32 455.685C1165.93 386.649 1321.2 476.328 1322.14 147.316C1323.08 -181.695 1131.43 -189.081 1045.06 -12.5793C958.684 163.923 838.691 105.481 661.144 139.237C483.598 172.992 431.359 310.11 559.865 332.11Z" stroke="url(#paint17_linear_2_192)" stroke-opacity="0.8"/>
<path d="M567.197 333.568C668.021 350.829 656.704 424.039 638.443 458.487C602.377 583.981 587.216 713.366 584.144 762.372C605.426 1165.9 852.038 779.77 854.939 720.109C857.26 672.38 954.056 683.077 1002.16 694.392C1474.08 737.368 1331.02 522.467 1246.31 454.761C1161.59 387.055 1313.86 475.006 1314.78 152.335C1315.71 -170.337 1127.74 -177.58 1043.04 -4.47933C958.331 168.621 840.65 111.306 666.525 144.411C492.4 177.516 441.167 311.991 567.197 333.568Z" stroke="url(#paint18_linear_2_192)" stroke-opacity="0.8"/>
<path d="M573.744 334.871C672.799 351.829 661.681 423.755 643.74 457.598C608.307 580.889 593.412 708.004 590.394 756.15C611.303 1152.6 853.587 773.244 856.437 714.629C858.717 667.738 953.815 678.247 1001.08 689.363C1464.71 731.585 1324.17 520.455 1240.94 453.937C1157.71 387.419 1307.3 473.827 1308.21 156.818C1309.12 -160.192 1124.46 -167.308 1041.24 2.75524C958.015 172.819 842.398 116.509 671.329 149.033C500.259 181.557 449.926 313.673 573.744 334.871Z" stroke="url(#paint19_linear_2_192)" stroke-opacity="0.8"/>
<path d="M579.499 336.015C676.999 352.707 666.055 423.504 648.396 456.816C613.519 578.172 598.858 703.291 595.887 750.681C616.468 1140.91 854.949 767.506 857.754 709.812C859.998 663.657 953.603 674.001 1000.12 684.943C1456.48 726.502 1318.14 518.686 1236.22 453.213C1154.29 387.739 1301.54 472.79 1302.44 160.757C1303.33 -151.276 1121.57 -158.281 1039.65 9.11317C957.737 176.507 843.936 121.081 675.552 153.095C507.167 185.108 457.624 315.15 579.499 336.015Z" stroke="url(#paint20_linear_2_192)" stroke-opacity="0.8"/>
<path d="M586.452 337.398C682.073 353.769 671.341 423.201 654.022 455.871C619.816 574.889 605.438 697.597 602.524 744.074C622.709 1126.78 856.594 760.575 859.345 703.992C861.546 658.726 953.347 668.872 998.973 679.602C1446.53 720.361 1310.86 516.55 1230.52 452.338C1150.17 388.126 1294.58 471.538 1295.46 165.518C1296.33 -140.502 1118.07 -147.372 1037.74 16.7959C957.402 180.964 845.793 126.606 680.654 158.003C515.515 189.4 466.926 316.935 586.452 337.398Z" stroke="url(#paint21_linear_2_192)" stroke-opacity="0.8"/>
<path d="M592.247 338.55C686.302 354.652 675.745 422.948 658.71 455.083C625.065 572.152 610.922 692.851 608.056 738.566C627.91 1115.01 857.965 754.797 860.671 699.141C862.836 654.617 953.134 664.596 998.013 675.151C1438.24 715.242 1304.79 514.768 1225.76 451.607C1146.73 388.447 1288.78 470.493 1289.64 169.484C1290.51 -131.525 1115.16 -138.283 1036.14 23.1972C957.122 184.677 847.341 131.21 684.906 162.092C522.471 192.975 474.678 318.422 592.247 338.55Z" stroke="url(#paint22_linear_2_192)" stroke-opacity="0.8"/>
<path d="M597.711 339.638C690.29 355.488 679.899 422.711 663.131 454.342C630.014 569.573 616.093 688.377 613.272 733.375C632.814 1103.91 859.258 749.351 861.922 694.569C864.053 650.743 952.933 660.565 997.107 670.955C1430.43 710.416 1299.07 513.09 1221.28 450.92C1143.49 388.751 1283.31 469.51 1284.16 173.226C1285.01 -123.058 1112.42 -129.709 1034.64 29.2356C956.859 188.181 848.801 135.552 688.916 165.95C529.03 196.348 481.987 319.826 597.711 339.638Z" stroke="url(#paint23_linear_2_192)" stroke-opacity="0.8"/>
<path d="M604.313 340.951C695.108 356.495 684.917 422.423 668.472 453.444C635.993 566.455 622.341 682.97 619.574 727.101C638.74 1090.49 860.821 742.769 863.433 689.042C865.523 646.061 952.69 655.694 996.013 665.883C1420.98 704.585 1292.16 511.06 1215.87 450.089C1139.58 389.118 1276.7 468.321 1277.53 177.746C1278.37 -112.829 1109.1 -119.352 1032.82 36.5303C956.54 192.412 850.565 140.798 693.76 170.61C536.956 200.422 490.82 321.521 604.313 340.951Z" stroke="url(#paint24_linear_2_192)" stroke-opacity="0.8"/>
<path d="M610.824 342.246C699.86 357.489 689.866 422.14 673.74 452.56C641.89 563.381 628.502 677.638 625.789 720.914C644.583 1077.26 862.361 736.279 864.923 683.593C866.972 641.444 952.451 650.891 994.934 660.883C1411.67 698.834 1285.34 509.059 1210.53 449.269C1135.72 389.48 1270.18 467.148 1271 182.203C1271.82 -102.742 1105.83 -109.139 1031.03 43.7232C956.226 196.585 852.304 145.971 698.538 175.205C544.772 204.44 499.529 323.192 610.824 342.246Z" stroke="url(#paint25_linear_2_192)" stroke-opacity="0.8"/>
<path d="M615.995 343.273C703.633 358.276 693.797 421.912 677.924 451.854C646.574 560.936 633.396 673.399 630.726 715.996C649.225 1066.75 863.584 731.12 866.106 679.261C868.123 637.774 952.26 647.072 994.076 656.907C1404.27 694.263 1279.93 507.467 1206.29 448.616C1132.65 389.765 1265 466.213 1265.81 185.742C1266.61 -94.7301 1103.23 -101.026 1029.6 49.4359C955.976 199.898 853.685 150.079 702.333 178.854C550.98 207.63 506.448 324.518 615.995 343.273Z" stroke="url(#paint26_linear_2_192)" stroke-opacity="0.8"/>
<path d="M622.246 344.518C708.196 359.232 698.548 421.642 682.981 451.007C652.236 557.986 639.312 668.283 636.693 710.059C654.835 1054.06 865.064 724.891 867.537 674.032C869.515 633.344 952.031 642.463 993.041 652.108C1395.33 688.744 1273.38 505.548 1201.16 447.831C1128.95 390.114 1258.75 465.089 1259.54 190.022C1260.33 -85.0448 1100.09 -91.2198 1027.88 56.3431C955.675 203.906 855.356 155.047 706.92 183.268C558.484 211.488 514.81 326.124 622.246 344.518Z" stroke="url(#paint27_linear_2_192)" stroke-opacity="0.8"/>
<path d="M627.454 345.553C711.996 360.027 702.507 421.414 687.195 450.299C656.953 555.527 644.24 664.017 641.664 705.109C659.51 1043.47 866.296 719.698 868.728 669.672C870.674 629.65 951.839 638.62 992.178 648.108C1387.88 684.143 1267.93 503.947 1196.89 447.175C1125.86 390.403 1253.54 464.151 1254.31 193.588C1255.09 -76.9752 1097.48 -83.0491 1026.45 62.0976C955.423 207.244 856.747 159.185 710.741 186.944C564.736 214.702 521.777 327.461 627.454 345.553Z" stroke="url(#paint28_linear_2_192)" stroke-opacity="0.8"/>
<path d="M632.366 346.53C715.581 360.776 706.24 421.2 691.168 449.631C661.401 553.207 648.888 659.994 646.353 700.441C663.918 1033.49 867.458 714.801 869.852 665.56C871.768 626.167 951.658 634.996 991.364 644.334C1380.85 679.804 1262.79 502.437 1192.87 446.556C1122.94 390.675 1248.62 463.265 1249.38 196.949C1250.14 -69.3663 1095.01 -75.3447 1025.1 67.5234C955.186 210.392 858.059 163.087 714.345 190.41C570.632 217.733 528.347 328.721 632.366 346.53Z" stroke="url(#paint29_linear_2_192)" stroke-opacity="0.8"/>
<path d="M638.3 347.711C719.912 361.683 710.751 420.942 695.97 448.825C666.776 550.405 654.504 655.135 652.018 694.802C669.245 1021.44 868.863 708.886 871.211 660.593C873.089 621.96 951.44 630.618 990.381 639.777C1372.37 674.563 1256.57 500.614 1188 445.81C1119.43 391.006 1242.68 462.197 1243.43 201.013C1244.17 -60.1707 1092.03 -66.034 1023.47 74.0811C954.9 214.196 859.644 167.803 718.7 194.599C577.756 221.396 536.286 330.246 638.3 347.711Z" stroke="url(#paint30_linear_2_192)" stroke-opacity="0.8"/>
<path d="M643.6 348.765C723.779 362.491 714.78 420.711 700.257 448.105C671.576 547.903 659.52 650.794 657.077 689.766C674.001 1010.67 870.116 703.602 872.423 656.157C874.269 618.201 951.245 626.708 989.502 635.706C1364.78 669.882 1251.02 498.985 1183.65 445.142C1116.28 391.3 1237.37 461.242 1238.11 204.641C1238.84 -51.9595 1089.37 -57.7199 1022.01 79.9366C954.644 217.593 861.06 172.014 722.589 198.34C584.118 224.666 543.376 331.606 643.6 348.765Z" stroke="url(#paint31_linear_2_192)" stroke-opacity="0.8"/>
<path d="M648.258 349.692C727.179 363.203 718.32 420.509 704.026 447.473C675.795 545.704 663.928 646.98 661.523 685.34C678.182 1001.21 871.219 698.959 873.489 652.259C875.306 614.899 951.074 623.272 988.731 632.129C1358.12 665.768 1246.15 497.554 1179.83 444.557C1113.52 391.559 1232.71 460.404 1233.43 207.831C1234.16 -44.7418 1087.03 -50.4118 1020.72 85.0837C954.42 220.579 862.304 175.715 726.007 201.629C589.71 227.542 549.607 332.803 648.258 349.692Z" stroke="url(#paint32_linear_2_192)" stroke-opacity="0.8"/>
<path d="M653.886 350.81C731.286 364.061 722.599 420.263 708.58 446.707C680.893 543.045 669.254 642.37 666.896 679.991C683.234 989.77 872.551 693.347 874.777 647.547C876.559 610.907 950.867 619.119 987.798 627.805C1350.07 660.796 1240.25 495.823 1175.22 443.847C1110.18 391.871 1227.08 459.389 1227.78 211.683C1228.49 -36.0225 1084.2 -41.5832 1019.18 91.3013C954.148 224.186 863.808 180.187 730.137 205.6C596.466 231.014 557.137 334.247 653.886 350.81Z" stroke="url(#paint33_linear_2_192)" stroke-opacity="0.8"/>
<path d="M658.577 351.744C734.709 364.777 726.164 420.059 712.375 446.07C685.141 540.83 673.693 638.529 671.373 675.533C687.444 980.241 873.66 688.671 875.851 643.621C877.603 607.581 950.694 615.658 987.021 624.202C1343.36 656.653 1235.34 494.381 1171.37 443.257C1107.4 392.132 1222.38 458.544 1223.08 214.894C1223.78 -28.7553 1081.85 -34.225 1017.88 96.4837C953.922 227.192 865.061 183.913 733.579 208.911C602.097 233.909 563.411 335.451 658.577 351.744Z" stroke="url(#paint34_linear_2_192)" stroke-opacity="0.8"/>
<path d="M662.999 352.622C737.937 365.452 729.525 419.865 715.953 445.468C689.146 538.741 677.878 634.906 675.595 671.33C691.413 971.254 874.707 684.261 876.863 639.918C878.588 604.444 950.531 612.394 986.287 620.804C1337.03 652.746 1230.71 493.021 1167.75 442.699C1104.78 392.377 1217.95 457.746 1218.64 217.921C1219.33 -21.9033 1079.62 -27.2872 1016.67 101.37C953.708 230.026 866.242 187.427 736.824 212.032C607.406 236.637 569.328 336.586 662.999 352.622Z" stroke="url(#paint35_linear_2_192)" stroke-opacity="0.8"/>
<path d="M668.344 353.686C741.837 366.268 733.588 419.633 720.277 444.743C693.987 536.218 682.936 630.53 680.697 666.252C696.21 960.396 875.972 678.934 878.086 635.446C879.778 600.655 950.335 608.452 985.402 616.7C1329.39 648.026 1225.12 491.38 1163.36 442.027C1101.61 392.674 1212.6 456.784 1213.28 221.581C1213.95 -13.6226 1076.94 -18.9026 1015.2 107.275C953.451 233.452 867.67 191.674 740.746 215.805C613.822 239.936 576.477 337.958 668.344 353.686Z" stroke="url(#paint36_linear_2_192)" stroke-opacity="0.8"/>
<path d="M672.766 354.566C745.064 366.943 736.949 419.44 723.855 444.141C697.993 534.129 687.121 626.908 684.918 662.048C700.179 951.41 877.018 674.525 879.098 631.743C880.762 597.518 950.172 605.189 984.669 613.302C1323.06 644.119 1220.48 490.02 1159.74 441.47C1098.99 392.92 1208.17 455.987 1208.84 224.609C1209.5 -6.77011 1074.72 -11.9643 1013.98 112.161C953.237 236.287 868.851 195.188 743.991 218.927C619.131 242.665 582.394 339.094 672.766 354.566Z" stroke="url(#paint37_linear_2_192)" stroke-opacity="0.8"/>
<path d="M676.966 355.401C748.13 367.584 740.142 419.257 727.253 443.57C701.797 532.146 691.096 623.468 688.928 658.057C703.949 942.875 878.012 670.337 880.059 628.227C881.697 594.539 950.017 602.089 983.973 610.076C1317.05 640.409 1216.09 488.728 1156.29 440.941C1096.5 393.153 1203.97 455.23 1204.62 227.484C1205.28 -0.262926 1072.61 -5.37557 1012.82 116.802C953.034 238.979 869.973 198.525 747.073 221.891C624.173 245.257 588.012 340.172 676.966 355.401Z" stroke="url(#paint38_linear_2_192)" stroke-opacity="0.8"/>
<path d="M682.041 356.41C751.833 368.359 744 419.036 731.359 442.881C706.393 529.749 695.899 619.312 693.772 653.234C708.504 932.564 879.212 665.278 881.22 623.98C882.827 590.941 949.83 598.346 983.132 606.178C1309.8 635.926 1210.77 487.169 1152.13 440.302C1093.49 393.435 1198.89 454.316 1199.53 230.958C1200.17 7.60049 1070.06 2.58636 1011.42 122.409C952.79 242.232 871.329 202.558 750.797 225.473C630.265 248.389 594.802 341.475 682.041 356.41Z" stroke="url(#paint39_linear_2_192)" stroke-opacity="0.8"/>
<path d="M686.27 357.25C754.92 369.003 747.214 418.85 734.78 442.305C710.224 527.751 699.901 615.847 697.809 649.214C712.3 923.97 880.213 661.06 882.188 620.438C883.768 587.94 949.675 595.224 982.43 602.928C1303.75 632.189 1206.34 485.868 1148.66 439.768C1090.98 393.668 1194.66 453.553 1195.29 233.852C1195.91 14.1518 1067.94 9.21975 1010.26 127.081C952.585 244.941 872.459 205.917 753.901 228.457C635.342 250.998 600.459 342.559 686.27 357.25Z" stroke="url(#paint40_linear_2_192)" stroke-opacity="0.8"/>
<path d="M690.259 358.044C757.83 369.612 750.246 418.677 738.007 441.763C713.836 525.868 703.675 612.581 701.616 645.424C715.88 915.867 881.157 657.085 883.101 617.1C884.656 585.113 949.528 592.282 981.77 599.865C1298.04 628.667 1202.17 484.642 1145.39 439.266C1088.61 393.89 1190.66 452.834 1191.28 236.583C1191.9 20.3312 1065.93 15.4766 1009.16 131.487C952.393 247.498 873.524 209.086 756.827 231.272C640.13 253.459 605.794 343.583 690.259 358.044Z" stroke="url(#paint41_linear_2_192)" stroke-opacity="0.8"/>
<path d="M695.078 359.002C761.347 370.347 753.909 418.466 741.906 441.108C718.201 523.592 708.236 608.634 706.216 640.844C720.205 906.076 882.297 652.28 884.204 613.066C885.729 581.695 949.351 588.726 980.971 596.163C1291.15 624.41 1197.12 483.161 1141.44 438.659C1085.76 394.158 1185.84 451.966 1186.45 239.881C1187.06 27.7969 1063.51 23.0359 1007.84 136.811C952.161 250.586 874.812 212.914 760.363 234.673C645.915 256.432 612.241 344.82 695.078 359.002Z" stroke="url(#paint42_linear_2_192)" stroke-opacity="0.8"/>
<path d="M699.381 359.859C764.488 371.006 757.18 418.281 745.388 440.525C722.099 521.562 712.309 605.111 710.325 636.756C724.068 897.334 883.316 647.992 885.189 609.466C886.687 578.645 949.193 585.553 980.258 592.859C1284.99 620.611 1192.62 481.84 1137.91 438.119C1083.21 394.398 1181.53 451.192 1182.13 242.829C1182.73 34.4666 1061.35 29.789 1006.65 141.568C951.953 253.346 875.962 216.335 763.522 237.713C651.081 259.09 617.998 345.927 699.381 359.859Z" stroke="url(#paint43_linear_2_192)" stroke-opacity="0.8"/>
<path d="M703.164 360.611C767.248 371.582 760.055 418.115 748.448 440.01C725.524 519.775 715.888 602.013 713.935 633.161C727.462 889.648 884.21 644.22 886.054 606.299C887.529 575.962 949.053 582.761 979.631 589.953C1279.58 617.269 1188.66 480.676 1134.81 437.642C1080.96 394.608 1177.75 450.51 1178.33 245.418C1178.92 40.3261 1059.45 35.722 1005.61 145.746C951.771 255.77 876.972 219.34 766.297 240.382C655.622 261.423 623.058 346.897 703.164 360.611Z" stroke="url(#paint44_linear_2_192)" stroke-opacity="0.8"/>
<path d="M707.734 361.52C770.584 372.28 763.529 417.916 752.146 439.39C729.664 517.617 720.213 598.27 718.298 628.819C731.565 880.363 885.292 639.664 887.101 602.474C888.547 572.722 948.886 579.39 978.874 586.443C1273.04 613.233 1183.87 479.272 1131.06 437.067C1078.25 394.862 1173.17 449.687 1173.75 248.547C1174.32 47.4073 1057.16 42.892 1004.35 150.796C951.551 258.7 878.193 222.972 769.651 243.608C661.109 264.244 629.172 348.07 707.734 361.52Z" stroke="url(#paint45_linear_2_192)" stroke-opacity="0.8"/>
<path d="M711.543 362.278C773.363 372.862 766.424 417.751 755.227 438.872C733.113 515.819 723.817 595.151 721.933 625.199C734.983 872.625 886.193 635.867 887.972 599.286C889.395 570.021 948.745 576.58 978.243 583.517C1267.6 609.868 1179.88 478.102 1127.94 436.588C1075.99 395.074 1169.36 449.001 1169.92 251.155C1170.49 53.3082 1055.24 48.8668 1003.3 155.004C951.367 261.141 879.21 225.998 772.445 246.296C665.68 266.595 634.267 349.048 711.543 362.278Z" stroke="url(#paint46_linear_2_192)" stroke-opacity="0.8"/>
<path d="M715.134 362.992C775.984 373.41 769.154 417.594 758.133 438.384C736.366 514.123 727.216 592.21 725.362 621.786C738.206 865.328 887.043 632.287 888.794 596.28C890.194 567.474 948.613 573.93 977.648 580.759C1262.46 606.696 1176.12 476.998 1124.99 436.135C1073.86 395.273 1165.76 448.354 1166.32 253.613C1166.88 58.8726 1053.44 54.5009 1002.32 158.972C951.193 263.443 880.17 228.851 775.081 248.831C669.992 268.811 639.072 349.97 715.134 362.992Z" stroke="url(#paint47_linear_2_192)" stroke-opacity="0.8"/>
<path d="M719.473 363.855C779.151 374.072 772.452 417.404 761.643 437.794C740.296 512.073 731.322 588.655 729.504 617.662C742.101 856.511 888.07 627.96 889.787 592.647C891.16 564.396 948.453 570.728 976.928 577.425C1256.25 602.862 1171.58 475.663 1121.43 435.589C1071.29 395.514 1161.42 447.572 1161.97 256.584C1162.51 65.5958 1051.26 61.3083 1001.12 163.766C950.984 266.224 881.329 232.299 778.265 251.894C675.201 271.488 644.877 351.084 719.473 363.855Z" stroke="url(#paint48_linear_2_192)" stroke-opacity="0.8"/>
<path d="M1821.24 394.808C1868.95 470.45 1818.84 545.262 1787.83 573.212C1692.35 692.108 1606.58 827.035 1575.63 879.636C1347.57 1338.88 1719.35 1049.07 1756.54 984.558C1786.3 932.951 1835.6 999.059 1856.53 1038.56C2102.35 1350.69 2148.05 1032.3 2139.65 909.765C2131.24 787.232 2166.44 970.066 2359.13 612.903C2551.81 255.739 2448.02 142.365 2296.22 286.772C2144.42 431.18 2110.87 301.69 1991.01 240.797C1871.15 179.904 1761.61 300.256 1821.24 394.808Z" stroke="url(#paint49_linear_2_192)" stroke-opacity="0.4"/>
<path d="M1823.92 399.383C1870.88 473.837 1821.56 547.474 1791.03 574.986C1697.05 692.015 1612.63 824.824 1582.16 876.599C1357.68 1328.63 1723.62 1043.37 1760.23 979.874C1789.52 929.077 1838.05 994.148 1858.65 1033.03C2100.61 1340.26 2145.6 1026.87 2137.33 906.255C2129.05 785.646 2163.7 965.61 2353.36 614.053C2543.02 262.496 2440.86 150.902 2291.44 293.042C2142.02 435.183 2109 307.726 1991.02 247.789C1873.04 187.852 1765.22 306.314 1823.92 399.383Z" stroke="url(#paint50_linear_2_192)" stroke-opacity="0.4"/>
<path d="M1827.15 404.91C1873.2 477.93 1824.83 550.148 1794.89 577.129C1702.73 691.904 1619.93 822.153 1590.05 872.931C1369.89 1316.25 1728.79 1036.49 1764.69 974.216C1793.42 924.398 1841.01 988.214 1861.22 1026.35C2098.52 1327.66 2142.63 1020.3 2134.52 902.015C2126.4 783.73 2160.38 960.226 2346.39 615.444C2532.39 270.661 2432.2 161.217 2285.66 300.619C2139.13 440.021 2106.74 315.02 1991.03 256.237C1875.33 197.455 1769.58 313.635 1827.15 404.91Z" stroke="url(#paint51_linear_2_192)" stroke-opacity="0.4"/>
<path d="M1829.84 409.516C1875.14 481.34 1827.57 552.375 1798.11 578.915C1707.46 691.81 1626.02 819.927 1596.63 869.873C1380.08 1305.94 1733.09 1030.75 1768.41 969.5C1796.67 920.497 1843.48 983.269 1863.35 1020.78C2096.77 1317.15 2140.16 1014.83 2132.18 898.482C2124.2 782.133 2157.62 955.739 2340.58 616.603C2523.54 277.466 2424.99 169.813 2280.85 306.933C2136.71 444.052 2104.85 321.098 1991.04 263.278C1877.23 205.458 1773.22 319.736 1829.84 409.516Z" stroke="url(#paint52_linear_2_192)" stroke-opacity="0.4"/>
<path d="M1832.38 413.859C1876.97 484.555 1830.14 554.475 1801.15 580.598C1711.92 691.722 1631.76 817.827 1602.83 866.989C1389.68 1296.21 1737.15 1025.34 1771.91 965.052C1799.73 916.819 1845.8 978.605 1865.37 1015.53C2095.11 1307.25 2137.83 1009.67 2129.97 895.148C2122.12 780.626 2155.02 951.508 2335.1 617.694C2515.19 283.881 2418.19 177.919 2276.31 312.886C2134.43 447.852 2103.08 326.828 1991.05 269.916C1879.03 213.004 1776.65 325.488 1832.38 413.859Z" stroke="url(#paint53_linear_2_192)" stroke-opacity="0.4"/>
<path d="M1835.45 419.107C1879.18 488.441 1833.25 557.014 1804.82 582.633C1717.31 691.615 1638.69 815.29 1610.32 863.505C1401.28 1284.45 1742.05 1018.81 1776.15 959.678C1803.42 912.375 1848.61 972.97 1867.8 1009.18C2093.12 1295.28 2135.01 1003.44 2127.31 891.122C2119.6 778.807 2151.87 946.395 2328.48 619.014C2505.1 291.634 2409.97 187.713 2270.82 320.079C2131.68 452.445 2100.93 333.753 1991.06 277.938C1881.2 222.122 1780.79 332.439 1835.45 419.107Z" stroke="url(#paint54_linear_2_192)" stroke-opacity="0.4"/>
<path d="M1838.19 423.794C1881.15 491.911 1836.03 559.281 1808.1 584.451C1722.12 691.52 1644.89 813.025 1617.01 860.394C1411.64 1273.96 1746.43 1012.97 1779.93 954.88C1806.73 908.406 1851.12 967.938 1869.97 1003.51C2091.34 1284.59 2132.5 997.871 2124.93 887.526C2117.36 777.182 2149.06 941.83 2322.57 620.194C2496.09 298.558 2402.63 196.461 2265.93 326.504C2129.23 456.547 2099.01 339.938 1991.08 285.102C1883.14 230.266 1784.49 338.646 1838.19 423.794Z" stroke="url(#paint55_linear_2_192)" stroke-opacity="0.4"/>
<path d="M1840.6 427.913C1882.89 494.962 1838.48 561.274 1810.98 586.048C1726.35 691.437 1650.33 811.035 1622.9 857.66C1420.74 1264.73 1750.28 1007.84 1783.25 950.662C1809.63 904.918 1853.33 963.516 1871.88 998.533C2089.78 1275.2 2130.28 992.979 2122.83 884.366C2115.38 775.754 2146.58 937.817 2317.38 621.23C2488.17 304.643 2396.17 204.149 2261.62 332.151C2127.07 460.153 2097.33 345.374 1991.08 291.399C1884.84 237.423 1787.74 344.103 1840.6 427.913Z" stroke="url(#paint56_linear_2_192)" stroke-opacity="0.4"/>
<path d="M1843.51 432.89C1884.98 498.647 1841.43 563.681 1814.46 587.978C1731.47 691.336 1656.91 808.629 1630 854.356C1431.74 1253.58 1754.93 1001.64 1787.27 945.566C1813.14 900.704 1856 958.172 1874.19 992.514C2087.88 1263.85 2127.61 987.067 2120.31 880.548C2113 774.028 2143.6 932.968 2311.1 622.482C2478.6 311.996 2388.38 213.438 2256.42 338.973C2124.46 464.509 2095.29 351.942 1991.09 299.007C1886.9 246.071 1791.67 350.695 1843.51 432.89Z" stroke="url(#paint57_linear_2_192)" stroke-opacity="0.4"/>
<path d="M1845.94 437.037C1886.73 501.717 1843.89 565.686 1817.37 589.586C1735.73 691.251 1662.39 806.624 1635.92 851.602C1440.91 1244.29 1758.81 996.478 1790.62 941.318C1816.06 897.19 1858.22 953.718 1876.11 987.498C2086.31 1254.39 2125.39 982.14 2118.2 877.365C2111.01 772.589 2141.11 928.927 2305.87 623.525C2470.63 318.122 2381.88 221.178 2252.08 344.658C2122.28 468.138 2093.59 357.414 1991.1 305.346C1888.62 253.277 1794.94 356.188 1845.94 437.037Z" stroke="url(#paint58_linear_2_192)" stroke-opacity="0.4"/>
<path d="M1848.22 440.949C1888.38 504.613 1846.21 567.578 1820.1 591.103C1739.74 691.172 1667.56 804.734 1641.51 849.006C1449.56 1235.53 1762.46 991.608 1793.77 937.314C1818.82 893.878 1860.31 949.519 1877.93 982.768C2084.82 1245.47 2123.29 977.494 2116.21 874.364C2109.14 771.233 2138.77 925.117 2300.94 624.509C2463.11 323.901 2375.76 228.479 2247.99 350.02C2120.23 471.561 2091.99 362.576 1991.11 311.325C1890.23 260.074 1798.03 361.368 1848.22 440.949Z" stroke="url(#paint59_linear_2_192)" stroke-opacity="0.4"/>
<path d="M1850.99 445.676C1890.37 508.113 1849.01 569.865 1823.41 592.936C1744.6 691.078 1673.8 802.45 1648.25 845.869C1460 1224.94 1766.88 985.724 1797.58 932.476C1822.15 889.877 1862.84 944.445 1880.12 977.054C2083.03 1234.69 2120.75 971.882 2113.81 870.739C2106.88 769.596 2135.93 920.514 2294.98 625.699C2454.03 330.883 2368.36 237.3 2243.05 356.499C2117.75 475.698 2090.06 368.813 1991.12 318.55C1892.19 268.286 1801.76 367.629 1850.99 445.676Z" stroke="url(#paint60_linear_2_192)" stroke-opacity="0.4"/>
<path d="M1853.28 449.586C1892.02 511.008 1851.33 571.756 1826.14 594.452C1748.62 690.997 1678.97 800.559 1653.84 843.272C1468.65 1216.18 1770.54 980.852 1800.74 928.47C1824.9 886.564 1864.94 940.245 1881.93 972.323C2081.54 1225.77 2118.65 967.235 2111.83 867.737C2105 768.239 2133.58 916.703 2290.05 626.681C2446.51 336.66 2362.23 244.599 2238.97 361.86C2115.7 479.12 2088.46 373.973 1991.13 324.527C1893.8 275.081 1804.85 372.808 1853.28 449.586Z" stroke="url(#paint61_linear_2_192)" stroke-opacity="0.4"/>
<path d="M1855.45 453.301C1893.58 513.759 1853.53 573.553 1828.74 595.892C1752.43 690.922 1683.88 798.764 1659.14 840.806C1476.86 1207.86 1774.01 976.227 1803.74 924.667C1827.52 883.419 1866.93 936.257 1883.65 967.832C2080.13 1217.3 2116.66 962.824 2109.94 864.888C2103.22 766.951 2131.36 913.084 2285.36 627.616C2439.37 342.147 2356.41 251.531 2235.08 366.951C2113.75 482.371 2086.94 378.875 1991.14 330.205C1895.34 281.535 1807.78 377.728 1855.45 453.301Z" stroke="url(#paint62_linear_2_192)" stroke-opacity="0.4"/>
<path d="M1858.07 457.789C1895.47 517.082 1856.19 575.723 1831.88 597.633C1757.04 690.831 1689.81 796.595 1665.55 837.827C1486.78 1197.81 1778.2 970.638 1807.36 920.072C1830.68 879.619 1869.33 931.439 1885.74 962.405C2078.43 1207.07 2114.25 957.493 2107.66 861.444C2101.07 765.395 2128.66 908.712 2279.7 628.745C2430.74 348.777 2349.38 259.907 2230.39 373.103C2111.4 486.299 2085.1 384.797 1991.15 337.065C1897.2 289.333 1811.33 383.672 1858.07 457.789Z" stroke="url(#paint63_linear_2_192)" stroke-opacity="0.4"/>
<path d="M1860.26 461.529C1897.04 519.851 1858.41 577.533 1834.5 599.083C1760.88 690.755 1694.75 794.788 1670.89 835.345C1495.04 1189.43 1781.7 965.981 1810.38 916.242C1833.32 876.452 1871.33 927.423 1887.47 957.883C2077 1198.54 2112.24 953.051 2105.76 858.575C2099.28 764.098 2126.42 905.069 2274.99 629.686C2423.55 354.303 2343.53 266.888 2226.48 378.23C2109.44 489.573 2083.57 389.732 1991.16 342.782C1898.74 295.832 1814.28 388.626 1860.26 461.529Z" stroke="url(#paint64_linear_2_192)" stroke-opacity="0.4"/>
<path d="M1862.32 465.056C1898.53 522.463 1860.5 579.239 1836.96 600.451C1764.5 690.684 1699.41 793.083 1675.92 833.004C1502.84 1181.53 1784.99 961.589 1813.22 912.632C1835.81 873.466 1873.22 923.637 1889.11 953.618C2075.66 1190.5 2110.35 948.863 2103.97 855.869C2097.59 762.876 2124.3 901.634 2270.54 630.573C2416.77 359.513 2338 273.47 2222.8 383.065C2107.59 492.659 2082.13 394.387 1991.16 348.173C1900.2 301.96 1817.06 393.298 1862.32 465.056Z" stroke="url(#paint65_linear_2_192)" stroke-opacity="0.4"/>
<path d="M1864.81 469.318C1900.32 525.618 1863.03 581.3 1839.94 602.103C1768.88 690.598 1705.04 791.024 1682.01 830.175C1512.26 1171.99 1788.97 956.282 1816.66 908.268C1838.81 869.857 1875.5 919.061 1891.08 948.465C2074.05 1180.78 2108.06 943.801 2101.8 852.6C2095.55 761.398 2121.75 897.482 2265.16 631.645C2408.58 365.808 2331.33 281.424 2218.34 388.906C2105.36 496.389 2080.39 400.01 1991.17 354.687C1901.96 309.364 1820.43 398.942 1864.81 469.318Z" stroke="url(#paint66_linear_2_192)" stroke-opacity="0.4"/>
<path d="M1867.04 473.123C1901.93 528.435 1865.29 583.14 1842.61 603.579C1772.79 690.52 1710.07 789.184 1687.44 827.648C1520.67 1163.47 1792.53 951.543 1819.73 904.371C1841.49 866.634 1877.54 914.975 1892.85 943.863C2072.6 1172.1 2106.02 939.281 2099.87 849.68C2093.73 760.079 2119.46 893.774 2260.36 632.602C2401.26 371.43 2325.37 288.526 2214.36 394.123C2103.36 499.719 2078.83 405.031 1991.18 360.504C1903.54 315.976 1823.43 403.982 1867.04 473.123Z" stroke="url(#paint67_linear_2_192)" stroke-opacity="0.4"/>
<path d="M1869 476.468C1903.33 530.912 1867.27 584.758 1844.95 604.876C1776.23 690.453 1714.49 787.568 1692.22 825.428C1528.06 1155.97 1795.66 947.378 1822.43 900.947C1843.85 863.802 1879.33 911.384 1894.4 939.818C2071.33 1164.47 2104.22 935.308 2098.17 847.114C2092.12 758.919 2117.46 890.516 2256.15 633.444C2394.83 376.371 2320.13 294.769 2210.87 398.708C2101.61 502.647 2077.46 409.445 1991.19 365.617C1904.92 321.788 1826.07 408.413 1869 476.468Z" stroke="url(#paint68_linear_2_192)" stroke-opacity="0.4"/>
<path d="M1871.36 480.51C1905.04 533.905 1869.67 586.714 1847.77 606.444C1780.38 690.371 1719.83 785.615 1697.99 822.745C1537 1146.92 1799.43 942.345 1825.69 896.809C1846.7 860.38 1881.5 907.045 1896.27 934.931C2069.79 1155.26 2102.05 930.508 2096.12 844.013C2090.19 757.518 2115.03 886.579 2251.05 634.461C2387.06 382.342 2313.8 302.312 2206.64 404.248C2099.49 506.184 2075.81 414.779 1991.2 371.795C1906.59 328.811 1829.26 413.766 1871.36 480.51Z" stroke="url(#paint69_linear_2_192)" stroke-opacity="0.4"/>
<path d="M1873.33 483.877C1906.45 536.398 1871.66 588.342 1850.13 607.748C1783.84 690.302 1724.28 783.986 1702.8 820.508C1544.44 1139.38 1802.58 938.15 1828.41 893.359C1849.07 857.527 1883.3 903.428 1897.83 930.857C2068.51 1147.58 2100.25 926.507 2094.41 841.428C2088.57 756.349 2113.01 883.297 2246.8 635.307C2380.59 387.317 2308.52 308.597 2203.12 408.864C2097.72 509.131 2074.43 419.222 1991.21 376.942C1907.98 334.662 1831.92 418.226 1873.33 483.877Z" stroke="url(#paint70_linear_2_192)" stroke-opacity="0.4"/>
<path d="M1875.19 487.054C1907.79 538.75 1873.55 589.879 1852.35 608.981C1787.1 690.239 1728.48 782.452 1707.33 818.401C1551.46 1132.26 1805.55 934.196 1830.97 890.108C1851.31 854.838 1885 900.019 1899.31 927.018C2067.31 1140.34 2098.54 922.736 2092.8 838.992C2087.05 755.249 2111.11 880.204 2242.8 636.107C2374.48 392.01 2303.55 314.526 2199.8 413.219C2096.06 511.912 2073.13 423.414 1991.21 381.798C1909.3 340.181 1834.43 422.434 1875.19 487.054Z" stroke="url(#paint71_linear_2_192)" stroke-opacity="0.4"/>
<path d="M1877.43 490.892C1909.41 541.592 1875.82 591.735 1855.03 610.469C1791.04 690.161 1733.55 780.597 1712.81 815.853C1559.94 1123.67 1809.13 929.417 1834.07 886.179C1854.01 851.589 1887.06 895.898 1901.08 922.377C2065.85 1131.58 2096.48 918.177 2090.85 836.048C2085.21 753.918 2108.81 876.466 2237.96 637.072C2367.1 397.679 2297.54 321.688 2195.79 418.479C2094.05 515.27 2071.56 428.478 1991.22 387.664C1910.88 346.849 1837.46 427.517 1877.43 490.892Z" stroke="url(#paint72_linear_2_192)" stroke-opacity="0.4"/>
<path d="M1879.64 494.676C1911 544.394 1878.07 593.565 1857.68 611.936C1794.93 690.084 1738.55 778.768 1718.21 813.342C1568.31 1115.19 1812.67 924.705 1837.12 882.304C1856.68 848.384 1889.08 891.836 1902.84 917.801C2064.41 1122.96 2094.45 913.683 2088.93 833.145C2083.4 752.607 2106.54 872.78 2233.18 638.024C2359.83 403.269 2291.61 328.75 2191.84 423.666C2092.06 518.582 2070.01 433.472 1991.23 393.448C1912.45 353.424 1840.45 432.529 1879.64 494.676Z" stroke="url(#paint73_linear_2_192)" stroke-opacity="0.4"/>
<path d="M1881.4 497.68C1912.27 546.617 1879.85 595.017 1859.78 613.1C1798.02 690.021 1742.53 777.313 1722.5 811.343C1574.95 1108.46 1815.48 920.958 1839.55 879.224C1858.8 845.836 1890.69 888.605 1904.23 914.163C2063.27 1116.1 2092.84 910.11 2087.4 830.836C2081.96 751.562 2104.73 869.848 2229.39 638.778C2354.05 407.708 2286.9 334.359 2188.7 427.785C2090.49 521.211 2068.78 437.437 1991.24 398.041C1913.69 358.646 1842.82 436.509 1881.4 497.68Z" stroke="url(#paint74_linear_2_192)" stroke-opacity="0.4"/>
<path d="M1883.53 501.315C1913.8 549.31 1882 596.777 1862.33 614.511C1801.75 689.95 1747.33 775.559 1727.69 808.934C1582.98 1100.32 1818.87 916.437 1842.48 875.507C1861.36 842.762 1892.64 884.708 1905.92 909.773C2061.89 1107.82 2090.89 905.797 2085.55 828.051C2080.22 750.305 2102.55 866.312 2224.81 639.694C2347.07 413.077 2281.21 341.142 2184.9 432.767C2088.58 524.393 2067.29 442.233 1991.24 403.596C1915.19 364.96 1845.69 441.323 1883.53 501.315Z" stroke="url(#paint75_linear_2_192)" stroke-opacity="0.4"/>
<path d="M1885.3 504.342C1915.07 551.55 1883.8 598.24 1864.44 615.684C1804.86 689.888 1751.33 774.096 1732.01 806.924C1589.68 1093.54 1821.7 912.666 1844.92 872.406C1863.49 840.198 1894.26 881.456 1907.32 906.112C2060.74 1100.91 2089.26 902.201 2084.02 825.728C2078.77 749.254 2100.74 863.362 2220.99 640.455C2341.25 417.549 2276.47 346.791 2181.73 436.916C2086.99 527.042 2066.06 446.227 1991.25 408.223C1916.45 370.22 1848.08 445.332 1885.3 504.342Z" stroke="url(#paint76_linear_2_192)" stroke-opacity="0.4"/>
<path d="M1886.97 507.196C1916.27 553.664 1885.49 599.621 1866.44 616.791C1807.79 689.829 1755.1 772.715 1736.09 805.029C1595.99 1087.14 1824.37 909.111 1847.22 869.483C1865.5 837.78 1895.79 878.391 1908.65 902.659C2059.65 1094.4 2087.73 898.81 2082.57 823.537C2077.4 748.264 2099.03 860.581 2217.39 641.173C2335.76 421.765 2272 352.119 2178.75 440.829C2085.5 529.54 2064.89 449.993 1991.26 412.586C1917.63 375.179 1850.33 449.112 1886.97 507.196Z" stroke="url(#paint77_linear_2_192)" stroke-opacity="0.4"/>
<path d="M1888.98 510.647C1917.73 556.219 1887.54 601.29 1868.85 618.129C1811.33 689.76 1759.66 771.049 1741.01 802.74C1603.61 1079.42 1827.6 904.816 1850.01 865.952C1867.93 834.86 1897.64 874.688 1910.25 898.489C2058.34 1086.54 2085.88 894.714 2080.81 820.891C2075.75 747.069 2096.96 857.221 2213.04 642.042C2329.13 426.862 2266.6 358.557 2175.14 445.558C2083.69 532.559 2063.48 454.546 1991.26 417.86C1919.05 381.174 1853.05 453.682 1888.98 510.647Z" stroke="url(#paint78_linear_2_192)" stroke-opacity="0.4"/>
<path d="M1890.78 513.727C1919.02 558.499 1889.37 602.779 1871.01 619.323C1814.5 689.697 1763.73 769.56 1745.41 800.694C1610.42 1072.52 1830.47 900.98 1852.49 862.797C1870.1 832.251 1899.28 871.38 1911.67 894.763C2057.17 1079.51 2084.22 891.054 2079.25 818.528C2074.27 746.001 2095.11 854.22 2209.16 642.816C2323.21 431.412 2261.77 364.306 2171.92 449.781C2082.07 535.255 2062.22 458.611 1991.27 422.568C1920.33 386.526 1855.49 457.762 1890.78 513.727Z" stroke="url(#paint79_linear_2_192)" stroke-opacity="0.4"/>
<path d="M1892.37 516.435C1920.16 560.504 1890.97 604.09 1872.9 620.374C1817.28 689.643 1767.31 768.252 1749.28 798.898C1616.4 1066.45 1833 897.609 1854.67 860.026C1872.01 829.959 1900.73 868.474 1912.93 891.49C2056.14 1073.34 2082.77 887.839 2077.87 816.451C2072.98 745.063 2093.48 851.583 2205.74 643.498C2318 435.413 2257.53 369.36 2169.09 453.493C2080.65 537.625 2061.11 462.184 1991.28 426.707C1921.45 391.231 1857.62 461.348 1892.37 516.435Z" stroke="url(#paint80_linear_2_192)" stroke-opacity="0.4"/>
<path d="M1894.28 519.706C1921.54 562.926 1892.91 605.672 1875.19 621.642C1820.64 689.576 1771.63 766.67 1753.95 796.726C1623.63 1059.13 1836.06 893.535 1857.31 856.676C1874.32 827.189 1902.49 864.961 1914.45 887.534C2054.9 1065.88 2081.01 883.953 2076.21 813.941C2071.41 743.928 2091.52 848.396 2201.62 644.32C2311.71 440.245 2252.41 375.465 2165.67 457.977C2078.94 540.488 2059.77 466.5 1991.28 431.707C1922.8 396.914 1860.21 465.681 1894.28 519.706Z" stroke="url(#paint81_linear_2_192)" stroke-opacity="0.4"/>
<path d="M1895.88 522.432C1922.69 564.945 1894.53 606.99 1877.1 622.699C1823.44 689.521 1775.23 765.353 1757.84 794.916C1629.66 1053.02 1838.61 890.14 1859.51 853.884C1876.24 824.88 1903.95 862.034 1915.71 884.237C2053.87 1059.66 2079.55 880.715 2074.83 811.849C2070.1 742.983 2089.89 845.74 2198.18 645.006C2306.47 444.272 2248.14 380.553 2162.83 461.714C2077.51 542.874 2058.65 470.098 1991.29 435.874C1923.93 401.651 1862.36 469.292 1895.88 522.432Z" stroke="url(#paint82_linear_2_192)" stroke-opacity="0.4"/>
<path d="M1897.38 525.002C1923.77 566.848 1896.05 608.233 1878.89 623.695C1826.08 689.468 1778.63 764.11 1761.51 793.209C1635.34 1047.26 1841.01 886.938 1861.59 851.251C1878.05 822.702 1905.32 859.273 1916.9 881.128C2052.89 1053.8 2078.17 877.661 2073.52 809.876C2068.87 742.091 2088.34 843.235 2194.94 645.652C2301.53 448.069 2244.11 385.351 2160.14 465.237C2076.16 545.123 2057.6 473.49 1991.3 439.803C1924.99 406.117 1864.39 472.696 1897.38 525.002Z" stroke="url(#paint83_linear_2_192)" stroke-opacity="0.4"/>
<path d="M1899.2 528.11C1925.08 569.148 1897.89 609.736 1881.07 624.901C1829.27 689.406 1782.73 762.609 1765.94 791.148C1642.21 1040.31 1843.91 883.07 1864.09 848.072C1880.24 820.073 1906.99 855.939 1918.34 877.372C2051.71 1046.71 2076.5 873.973 2071.94 807.494C2067.38 741.015 2086.48 840.21 2191.02 646.434C2295.56 452.659 2239.25 391.149 2156.89 469.496C2074.53 547.843 2056.33 477.589 1991.3 444.553C1926.27 411.516 1866.84 476.811 1899.2 528.11Z" stroke="url(#paint84_linear_2_192)" stroke-opacity="0.4"/>
<path d="M1900.7 530.68C1926.16 571.051 1899.42 610.979 1882.87 625.897C1831.91 689.354 1786.13 761.366 1769.61 789.44C1647.89 1034.55 1846.32 879.868 1866.17 845.439C1882.05 817.895 1908.36 853.178 1919.53 874.263C2050.73 1040.85 2075.12 870.919 2070.64 805.521C2066.15 740.123 2084.94 837.704 2187.78 647.08C2290.62 456.456 2235.22 395.946 2154.2 473.019C2073.19 550.092 2055.28 480.981 1991.31 448.481C1927.34 415.982 1868.87 480.215 1900.7 530.68Z" stroke="url(#paint85_linear_2_192)" stroke-opacity="0.4"/>
<path d="M1902.13 533.121C1927.19 572.859 1900.87 612.16 1884.57 626.843C1834.42 689.304 1789.36 760.186 1773.1 787.819C1653.29 1029.08 1848.6 876.828 1868.14 842.939C1883.77 815.828 1909.67 850.557 1920.67 871.311C2049.81 1035.28 2073.81 868.019 2069.4 803.647C2064.98 739.276 2083.47 835.326 2184.7 647.694C2285.92 460.063 2231.4 400.503 2151.65 476.366C2071.91 552.228 2054.28 484.203 1991.31 452.213C1928.35 420.223 1870.8 483.449 1902.13 533.121Z" stroke="url(#paint86_linear_2_192)" stroke-opacity="0.4"/>
<path d="M1903.85 536.071C1928.43 575.043 1902.62 613.586 1886.64 627.987C1837.45 689.244 1793.26 758.76 1777.31 785.861C1659.81 1022.47 1851.35 873.154 1870.52 839.919C1885.85 813.33 1911.25 847.39 1922.03 867.743C2048.68 1028.56 2072.23 864.515 2067.9 801.384C2063.57 738.253 2081.7 832.452 2180.98 648.436C2280.25 464.42 2226.78 406.008 2148.57 480.409C2070.36 554.81 2053.07 488.095 1991.32 456.722C1929.57 425.349 1873.13 487.356 1903.85 536.071Z" stroke="url(#paint87_linear_2_192)" stroke-opacity="0.4"/>
<path d="M1905.29 538.528C1929.47 576.862 1904.07 614.775 1888.36 628.939C1839.97 689.193 1796.51 757.571 1780.82 784.228C1665.24 1016.96 1853.65 870.092 1872.5 837.401C1887.58 811.247 1912.57 844.749 1923.17 864.77C2047.75 1022.95 2070.91 861.594 2066.65 799.497C2062.39 737.4 2080.23 830.057 2177.88 649.054C2275.53 468.051 2222.93 410.595 2146 483.778C2069.07 556.96 2052.07 491.338 1991.33 460.478C1930.58 429.619 1875.07 490.611 1905.29 538.528Z" stroke="url(#paint88_linear_2_192)" stroke-opacity="0.4"/>
<path d="M1906.65 540.846C1930.44 578.578 1905.45 615.896 1889.98 629.838C1842.35 689.146 1799.57 756.451 1784.13 782.689C1670.37 1011.77 1855.82 867.206 1874.37 835.027C1889.22 809.284 1913.81 842.261 1924.25 861.967C2046.87 1017.66 2069.67 858.841 2065.47 797.719C2061.28 736.596 2078.84 827.798 2174.96 649.637C2271.07 471.475 2219.3 414.921 2143.58 486.955C2067.86 558.989 2051.12 494.397 1991.33 464.022C1931.54 433.647 1876.9 493.681 1906.65 540.846Z" stroke="url(#paint89_linear_2_192)" stroke-opacity="0.4"/>
<path d="M1908.28 543.647C1931.62 580.652 1907.11 617.25 1891.94 630.924C1845.23 689.089 1803.27 755.097 1788.13 780.83C1676.56 1005.5 1858.44 863.717 1876.63 832.159C1891.19 806.912 1915.31 839.253 1925.55 858.579C2045.81 1011.28 2068.16 855.514 2064.05 795.569C2059.94 735.625 2077.16 825.07 2171.42 650.341C2265.69 475.613 2214.91 420.149 2140.65 490.795C2066.39 561.44 2049.97 498.093 1991.34 468.303C1932.7 438.513 1879.11 497.391 1908.28 543.647Z" stroke="url(#paint90_linear_2_192)" stroke-opacity="0.4"/>
<path d="M1909.75 546.15C1932.68 582.506 1908.59 618.462 1893.69 631.896C1847.8 689.04 1806.58 753.89 1791.7 779.171C1682.09 999.896 1860.77 860.604 1878.65 829.6C1892.95 804.796 1916.65 836.569 1926.71 855.556C2044.86 1005.57 2066.82 852.545 2062.78 793.652C2058.74 734.759 2075.66 822.635 2168.27 650.972C2260.88 479.31 2210.99 424.819 2138.03 494.225C2065.07 563.631 2048.95 501.395 1991.34 472.128C1933.73 442.861 1881.08 500.706 1909.75 546.15Z" stroke="url(#paint91_linear_2_192)" stroke-opacity="0.4"/>
<path d="M1911.03 548.348C1933.6 584.133 1909.9 619.525 1895.22 632.748C1850.06 688.995 1809.48 752.827 1794.84 777.711C1686.95 994.971 1862.83 857.866 1880.42 827.348C1894.5 802.934 1917.83 834.208 1927.73 852.897C2044.02 1000.56 2065.64 849.933 2061.66 791.965C2057.69 733.997 2074.34 820.492 2165.5 651.525C2256.65 482.557 2207.55 428.922 2135.74 497.238C2063.92 565.555 2048.05 504.296 1991.35 475.488C1934.64 446.681 1882.82 503.617 1911.03 548.348Z" stroke="url(#paint92_linear_2_192)" stroke-opacity="0.4"/>
<path d="M1912.58 551.005C1934.72 586.1 1911.47 620.81 1897.08 633.778C1852.78 688.942 1812.99 751.543 1798.63 775.948C1692.82 989.021 1865.31 854.558 1882.57 824.628C1896.37 800.684 1919.25 831.356 1928.96 849.685C2043.01 994.501 2064.21 846.778 2060.31 789.927C2056.42 733.076 2072.75 817.905 2162.15 652.193C2251.54 486.481 2203.39 433.88 2132.96 500.88C2062.53 567.88 2046.96 507.801 1991.35 479.549C1935.74 451.297 1884.92 507.136 1912.58 551.005Z" stroke="url(#paint93_linear_2_192)" stroke-opacity="0.4"/>
<path d="M1913.88 553.218C1935.65 587.739 1912.79 621.88 1898.63 634.636C1855.06 688.897 1815.92 750.473 1801.79 774.478C1697.71 984.063 1867.38 851.801 1884.35 822.361C1897.93 798.81 1920.43 828.979 1929.99 847.008C2042.17 989.453 2063.03 844.149 2059.19 788.228C2055.35 732.308 2071.42 815.748 2159.35 652.75C2247.29 489.752 2199.92 438.011 2130.65 503.914C2061.37 569.817 2046.06 510.722 1991.36 482.933C1936.66 455.143 1886.66 510.068 1913.88 553.218Z" stroke="url(#paint94_linear_2_192)" stroke-opacity="0.4"/>
<path d="M1915.1 555.306C1936.53 589.284 1914.02 622.89 1900.09 635.445C1857.2 688.854 1818.67 749.464 1804.77 773.092C1702.32 979.387 1869.33 849.201 1886.04 820.224C1899.41 797.042 1921.55 826.738 1930.95 844.484C2041.38 984.692 2061.91 841.669 2058.13 786.626C2054.35 731.584 2070.17 813.714 2156.72 653.275C2243.28 492.835 2196.65 441.907 2128.46 506.775C2060.27 571.644 2045.2 513.477 1991.36 486.123C1937.52 458.77 1888.31 512.832 1915.1 555.306Z" stroke="url(#paint95_linear_2_192)" stroke-opacity="0.4"/>
<path d="M1916.58 557.828C1937.59 591.152 1915.52 624.11 1901.85 636.423C1859.79 688.803 1822.01 748.244 1808.37 771.418C1707.9 973.736 1871.69 846.06 1888.07 817.641C1901.18 794.905 1922.9 824.029 1932.12 841.433C2040.42 978.94 2060.55 838.673 2056.85 784.691C2053.15 730.709 2068.65 811.257 2153.54 653.909C2238.43 496.561 2192.7 446.614 2125.83 510.233C2058.95 573.851 2044.17 516.805 1991.37 489.978C1938.56 463.152 1890.3 516.173 1916.58 557.828Z" stroke="url(#paint96_linear_2_192)" stroke-opacity="0.4"/>
</g>
<defs>
<linearGradient id="paint0_linear_2_192" x1="1362.36" y1="-111.806" x2="1018.23" y2="673.117" gradientUnits="userSpaceOnUse">
<stop stop-color="#000C52"/>
<stop offset="1" stop-color="#000051"/>
</linearGradient>
<linearGradient id="paint1_linear_2_192" x1="1252.46" y1="-377.439" x2="412.447" y2="1131.18" gradientUnits="userSpaceOnUse">
<stop stop-color="#0963B8"/>
<stop offset="0.171875" stop-color="#6200AE"/>
<stop offset="0.317708" stop-color="#1900AE"/>
<stop offset="0.661458" stop-color="#260091"/>
<stop offset="0.895833" stop-color="#4731FC"/>
<stop offset="0.979167" stop-color="#3221F1"/>
<stop offset="1" stop-color="#21C9F1"/>
</linearGradient>
<linearGradient id="paint2_linear_2_192" x1="1247.56" y1="-365.112" x2="420.734" y2="1119.82" gradientUnits="userSpaceOnUse">
<stop stop-color="#0963B8"/>
<stop offset="0.171875" stop-color="#6200AE"/>
<stop offset="0.317708" stop-color="#1900AE"/>
<stop offset="0.661458" stop-color="#260091"/>
<stop offset="0.895833" stop-color="#4731FC"/>
<stop offset="0.979167" stop-color="#3221F1"/>
<stop offset="1" stop-color="#21C9F1"/>
</linearGradient>
<linearGradient id="paint3_linear_2_192" x1="1241.64" y1="-350.219" x2="430.747" y2="1106.1" gradientUnits="userSpaceOnUse">
<stop stop-color="#0963B8"/>
<stop offset="0.171875" stop-color="#6200AE"/>
<stop offset="0.317708" stop-color="#1900AE"/>
<stop offset="0.661458" stop-color="#260091"/>
<stop offset="0.895833" stop-color="#4731FC"/>
<stop offset="0.979167" stop-color="#3221F1"/>
<stop offset="1" stop-color="#21C9F1"/>
</linearGradient>
<linearGradient id="paint4_linear_2_192" x1="1236.71" y1="-337.807" x2="439.091" y2="1094.66" gradientUnits="userSpaceOnUse">
<stop stop-color="#0963B8"/>
<stop offset="0.171875" stop-color="#6200AE"/>
<stop offset="0.317708" stop-color="#1900AE"/>
<stop offset="0.661458" stop-color="#260091"/>
<stop offset="0.895833" stop-color="#4731FC"/>
<stop offset="0.979167" stop-color="#3221F1"/>
<stop offset="1" stop-color="#21C9F1"/>
</linearGradient>
<linearGradient id="paint5_linear_2_192" x1="1232.05" y1="-326.103" x2="446.958" y2="1083.88" gradientUnits="userSpaceOnUse">
<stop stop-color="#0963B8"/>
<stop offset="0.171875" stop-color="#6200AE"/>
<stop offset="0.317708" stop-color="#1900AE"/>
<stop offset="0.661458" stop-color="#260091"/>
<stop offset="0.895833" stop-color="#4731FC"/>
<stop offset="0.979167" stop-color="#3221F1"/>
<stop offset="1" stop-color="#21C9F1"/>
</linearGradient>
<linearGradient id="paint6_linear_2_192" x1="1226.43" y1="-311.961" x2="456.466" y2="1070.85" gradientUnits="userSpaceOnUse">
<stop stop-color="#0963B8"/>
<stop offset="0.171875" stop-color="#6200AE"/>
<stop offset="0.317708" stop-color="#1900AE"/>
<stop offset="0.661458" stop-color="#260091"/>
<stop offset="0.895833" stop-color="#4731FC"/>
<stop offset="0.979167" stop-color="#3221F1"/>
<stop offset="1" stop-color="#21C9F1"/>
</linearGradient>
<linearGradient id="paint7_linear_2_192" x1="1221.41" y1="-299.332" x2="464.957" y2="1059.22" gradientUnits="userSpaceOnUse">
<stop stop-color="#0963B8"/>
<stop offset="0.171875" stop-color="#6200AE"/>
<stop offset="0.317708" stop-color="#1900AE"/>
<stop offset="0.661458" stop-color="#260091"/>
<stop offset="0.895833" stop-color="#4731FC"/>
<stop offset="0.979167" stop-color="#3221F1"/>
<stop offset="1" stop-color="#21C9F1"/>
</linearGradient>
<linearGradient id="paint8_linear_2_192" x1="1217" y1="-288.231" x2="472.419" y2="1048.99" gradientUnits="userSpaceOnUse">
<stop stop-color="#0963B8"/>
<stop offset="0.171875" stop-color="#6200AE"/>
<stop offset="0.317708" stop-color="#1900AE"/>
<stop offset="0.661458" stop-color="#260091"/>
<stop offset="0.895833" stop-color="#4731FC"/>
<stop offset="0.979167" stop-color="#3221F1"/>
<stop offset="1" stop-color="#21C9F1"/>
</linearGradient>
<linearGradient id="paint9_linear_2_192" x1="1211.67" y1="-274.819" x2="481.436" y2="1036.64" gradientUnits="userSpaceOnUse">
<stop stop-color="#0963B8"/>
<stop offset="0.171875" stop-color="#6200AE"/>
<stop offset="0.317708" stop-color="#1900AE"/>
<stop offset="0.661458" stop-color="#260091"/>
<stop offset="0.895833" stop-color="#4731FC"/>
<stop offset="0.979167" stop-color="#3221F1"/>
<stop offset="1" stop-color="#21C9F1"/>
</linearGradient>
<linearGradient id="paint10_linear_2_192" x1="1207.23" y1="-263.642" x2="488.95" y2="1026.34" gradientUnits="userSpaceOnUse">
<stop stop-color="#0963B8"/>
<stop offset="0.171875" stop-color="#6200AE"/>
<stop offset="0.317708" stop-color="#1900AE"/>
<stop offset="0.661458" stop-color="#260091"/>
<stop offset="0.895833" stop-color="#4731FC"/>
<stop offset="0.979167" stop-color="#3221F1"/>
<stop offset="1" stop-color="#21C9F1"/>
</linearGradient>
<linearGradient id="paint11_linear_2_192" x1="1203.04" y1="-253.103" x2="496.035" y2="1016.63" gradientUnits="userSpaceOnUse">
<stop stop-color="#0963B8"/>
<stop offset="0.171875" stop-color="#6200AE"/>
<stop offset="0.317708" stop-color="#1900AE"/>
<stop offset="0.661458" stop-color="#260091"/>
<stop offset="0.895833" stop-color="#4731FC"/>
<stop offset="0.979167" stop-color="#3221F1"/>
<stop offset="1" stop-color="#21C9F1"/>
</linearGradient>
<linearGradient id="paint12_linear_2_192" x1="1197.97" y1="-240.366" x2="504.597" y2="1004.9" gradientUnits="userSpaceOnUse">
<stop stop-color="#0963B8"/>
<stop offset="0.171875" stop-color="#6200AE"/>
<stop offset="0.317708" stop-color="#1900AE"/>
<stop offset="0.661458" stop-color="#260091"/>
<stop offset="0.895833" stop-color="#4731FC"/>
<stop offset="0.979167" stop-color="#3221F1"/>
<stop offset="1" stop-color="#21C9F1"/>
</linearGradient>
<linearGradient id="paint13_linear_2_192" x1="1193.78" y1="-229.827" x2="511.683" y2="995.186" gradientUnits="userSpaceOnUse">
<stop stop-color="#0963B8"/>
<stop offset="0.171875" stop-color="#6200AE"/>
<stop offset="0.317708" stop-color="#1900AE"/>
<stop offset="0.661458" stop-color="#260091"/>
<stop offset="0.895833" stop-color="#4731FC"/>
<stop offset="0.979167" stop-color="#3221F1"/>
<stop offset="1" stop-color="#21C9F1"/>
</linearGradient>
<linearGradient id="paint14_linear_2_192" x1="1189.81" y1="-219.818" x2="518.411" y2="985.965" gradientUnits="userSpaceOnUse">
<stop stop-color="#0963B8"/>
<stop offset="0.171875" stop-color="#6200AE"/>
<stop offset="0.317708" stop-color="#1900AE"/>
<stop offset="0.661458" stop-color="#260091"/>
<stop offset="0.895833" stop-color="#4731FC"/>
<stop offset="0.979167" stop-color="#3221F1"/>
<stop offset="1" stop-color="#21C9F1"/>
</linearGradient>
<linearGradient id="paint15_linear_2_192" x1="1185" y1="-207.724" x2="526.542" y2="974.823" gradientUnits="userSpaceOnUse">
<stop stop-color="#0963B8"/>
<stop offset="0.171875" stop-color="#6200AE"/>
<stop offset="0.317708" stop-color="#1900AE"/>
<stop offset="0.661458" stop-color="#260091"/>
<stop offset="0.895833" stop-color="#4731FC"/>
<stop offset="0.979167" stop-color="#3221F1"/>
<stop offset="1" stop-color="#21C9F1"/>
</linearGradient>
<linearGradient id="paint16_linear_2_192" x1="1180.99" y1="-197.646" x2="533.317" y2="965.538" gradientUnits="userSpaceOnUse">
<stop stop-color="#0963B8"/>
<stop offset="0.171875" stop-color="#6200AE"/>
<stop offset="0.317708" stop-color="#1900AE"/>
<stop offset="0.661458" stop-color="#260091"/>
<stop offset="0.895833" stop-color="#4731FC"/>
<stop offset="0.979167" stop-color="#3221F1"/>
<stop offset="1" stop-color="#21C9F1"/>
</linearGradient>
<linearGradient id="paint17_linear_2_192" x1="1177.21" y1="-188.141" x2="539.706" y2="956.783" gradientUnits="userSpaceOnUse">
<stop stop-color="#0963B8"/>
<stop offset="0.171875" stop-color="#6200AE"/>
<stop offset="0.317708" stop-color="#1900AE"/>
<stop offset="0.661458" stop-color="#260091"/>
<stop offset="0.895833" stop-color="#4731FC"/>
<stop offset="0.979167" stop-color="#3221F1"/>
<stop offset="1" stop-color="#21C9F1"/>
</linearGradient>
<linearGradient id="paint18_linear_2_192" x1="1172.65" y1="-176.658" x2="547.427" y2="946.203" gradientUnits="userSpaceOnUse">
<stop stop-color="#0963B8"/>
<stop offset="0.171875" stop-color="#6200AE"/>
<stop offset="0.317708" stop-color="#1900AE"/>
<stop offset="0.661458" stop-color="#260091"/>
<stop offset="0.895833" stop-color="#4731FC"/>
<stop offset="0.979167" stop-color="#3221F1"/>
<stop offset="1" stop-color="#21C9F1"/>
</linearGradient>
<linearGradient id="paint19_linear_2_192" x1="1168.57" y1="-166.402" x2="554.321" y2="936.756" gradientUnits="userSpaceOnUse">
<stop stop-color="#0963B8"/>
<stop offset="0.171875" stop-color="#6200AE"/>
<stop offset="0.317708" stop-color="#1900AE"/>
<stop offset="0.661458" stop-color="#260091"/>
<stop offset="0.895833" stop-color="#4731FC"/>
<stop offset="0.979167" stop-color="#3221F1"/>
<stop offset="1" stop-color="#21C9F1"/>
</linearGradient>
<linearGradient id="paint20_linear_2_192" x1="1164.99" y1="-157.389" x2="560.38" y2="928.452" gradientUnits="userSpaceOnUse">
<stop stop-color="#0963B8"/>
<stop offset="0.171875" stop-color="#6200AE"/>
<stop offset="0.317708" stop-color="#1900AE"/>
<stop offset="0.661458" stop-color="#260091"/>
<stop offset="0.895833" stop-color="#4731FC"/>
<stop offset="0.979167" stop-color="#3221F1"/>
<stop offset="1" stop-color="#21C9F1"/>
</linearGradient>
<linearGradient id="paint21_linear_2_192" x1="1160.66" y1="-146.498" x2="567.702" y2="918.419" gradientUnits="userSpaceOnUse">
<stop stop-color="#0963B8"/>
<stop offset="0.171875" stop-color="#6200AE"/>
<stop offset="0.317708" stop-color="#1900AE"/>
<stop offset="0.661458" stop-color="#260091"/>
<stop offset="0.895833" stop-color="#4731FC"/>
<stop offset="0.979167" stop-color="#3221F1"/>
<stop offset="1" stop-color="#21C9F1"/>
</linearGradient>
<linearGradient id="paint22_linear_2_192" x1="1157.05" y1="-137.423" x2="573.804" y2="910.057" gradientUnits="userSpaceOnUse">
<stop stop-color="#0963B8"/>
<stop offset="0.171875" stop-color="#6200AE"/>
<stop offset="0.317708" stop-color="#1900AE"/>
<stop offset="0.661458" stop-color="#260091"/>
<stop offset="0.895833" stop-color="#4731FC"/>
<stop offset="0.979167" stop-color="#3221F1"/>
<stop offset="1" stop-color="#21C9F1"/>
</linearGradient>
<linearGradient id="paint23_linear_2_192" x1="1153.65" y1="-128.863" x2="579.558" y2="902.174" gradientUnits="userSpaceOnUse">
<stop stop-color="#0963B8"/>
<stop offset="0.171875" stop-color="#6200AE"/>
<stop offset="0.317708" stop-color="#1900AE"/>
<stop offset="0.661458" stop-color="#260091"/>
<stop offset="0.895833" stop-color="#4731FC"/>
<stop offset="0.979167" stop-color="#3221F1"/>
<stop offset="1" stop-color="#21C9F1"/>
</linearGradient>
<linearGradient id="paint24_linear_2_192" x1="1149.54" y1="-118.522" x2="586.51" y2="892.647" gradientUnits="userSpaceOnUse">
<stop stop-color="#0963B8"/>
<stop offset="0.171875" stop-color="#6200AE"/>
<stop offset="0.317708" stop-color="#1900AE"/>
<stop offset="0.661458" stop-color="#260091"/>
<stop offset="0.895833" stop-color="#4731FC"/>
<stop offset="0.979167" stop-color="#3221F1"/>
<stop offset="1" stop-color="#21C9F1"/>
</linearGradient>
<linearGradient id="paint25_linear_2_192" x1="1145.49" y1="-108.324" x2="593.365" y2="883.252" gradientUnits="userSpaceOnUse">
<stop stop-color="#0963B8"/>
<stop offset="0.171875" stop-color="#6200AE"/>
<stop offset="0.317708" stop-color="#1900AE"/>
<stop offset="0.661458" stop-color="#260091"/>
<stop offset="0.895833" stop-color="#4731FC"/>
<stop offset="0.979167" stop-color="#3221F1"/>
<stop offset="1" stop-color="#21C9F1"/>
</linearGradient>
<linearGradient id="paint26_linear_2_192" x1="1142.27" y1="-100.225" x2="598.811" y2="875.786" gradientUnits="userSpaceOnUse">
<stop stop-color="#0963B8"/>
<stop offset="0.171875" stop-color="#6200AE"/>
<stop offset="0.317708" stop-color="#1900AE"/>
<stop offset="0.661458" stop-color="#260091"/>
<stop offset="0.895833" stop-color="#4731FC"/>
<stop offset="0.979167" stop-color="#3221F1"/>
<stop offset="1" stop-color="#21C9F1"/>
</linearGradient>
<linearGradient id="paint27_linear_2_192" x1="1138.37" y1="-90.4337" x2="605.393" y2="866.769" gradientUnits="userSpaceOnUse">
<stop stop-color="#0963B8"/>
<stop offset="0.171875" stop-color="#6200AE"/>
<stop offset="0.317708" stop-color="#1900AE"/>
<stop offset="0.661458" stop-color="#260091"/>
<stop offset="0.895833" stop-color="#4731FC"/>
<stop offset="0.979167" stop-color="#3221F1"/>
<stop offset="1" stop-color="#21C9F1"/>
</linearGradient>
<linearGradient id="paint28_linear_2_192" x1="1135.13" y1="-82.2759" x2="610.877" y2="859.254" gradientUnits="userSpaceOnUse">
<stop stop-color="#0963B8"/>
<stop offset="0.171875" stop-color="#6200AE"/>
<stop offset="0.317708" stop-color="#1900AE"/>
<stop offset="0.661458" stop-color="#260091"/>
<stop offset="0.895833" stop-color="#4731FC"/>
<stop offset="0.979167" stop-color="#3221F1"/>
<stop offset="1" stop-color="#21C9F1"/>
</linearGradient>
<linearGradient id="paint29_linear_2_192" x1="1132.07" y1="-74.5837" x2="616.049" y2="852.166" gradientUnits="userSpaceOnUse">
<stop stop-color="#0963B8"/>
<stop offset="0.171875" stop-color="#6200AE"/>
<stop offset="0.317708" stop-color="#1900AE"/>
<stop offset="0.661458" stop-color="#260091"/>
<stop offset="0.895833" stop-color="#4731FC"/>
<stop offset="0.979167" stop-color="#3221F1"/>
<stop offset="1" stop-color="#21C9F1"/>
</linearGradient>
<linearGradient id="paint30_linear_2_192" x1="1128.38" y1="-65.2877" x2="622.297" y2="843.604" gradientUnits="userSpaceOnUse">
<stop stop-color="#0963B8"/>
<stop offset="0.171875" stop-color="#6200AE"/>
<stop offset="0.317708" stop-color="#1900AE"/>
<stop offset="0.661458" stop-color="#260091"/>
<stop offset="0.895833" stop-color="#4731FC"/>
<stop offset="0.979167" stop-color="#3221F1"/>
<stop offset="1" stop-color="#21C9F1"/>
</linearGradient>
<linearGradient id="paint31_linear_2_192" x1="1125.08" y1="-56.9866" x2="627.878" y2="835.956" gradientUnits="userSpaceOnUse">
<stop stop-color="#0963B8"/>
<stop offset="0.171875" stop-color="#6200AE"/>
<stop offset="0.317708" stop-color="#1900AE"/>
<stop offset="0.661458" stop-color="#260091"/>
<stop offset="0.895833" stop-color="#4731FC"/>
<stop offset="0.979167" stop-color="#3221F1"/>
<stop offset="1" stop-color="#21C9F1"/>
</linearGradient>
<linearGradient id="paint32_linear_2_192" x1="1122.18" y1="-49.6901" x2="632.783" y2="829.235" gradientUnits="userSpaceOnUse">
<stop stop-color="#0963B8"/>
<stop offset="0.171875" stop-color="#6200AE"/>
<stop offset="0.317708" stop-color="#1900AE"/>
<stop offset="0.661458" stop-color="#260091"/>
<stop offset="0.895833" stop-color="#4731FC"/>
<stop offset="0.979167" stop-color="#3221F1"/>
<stop offset="1" stop-color="#21C9F1"/>
</linearGradient>
<linearGradient id="paint33_linear_2_192" x1="1118.67" y1="-40.8754" x2="638.709" y2="821.113" gradientUnits="userSpaceOnUse">
<stop stop-color="#0963B8"/>
<stop offset="0.171875" stop-color="#6200AE"/>
<stop offset="0.317708" stop-color="#1900AE"/>
<stop offset="0.661458" stop-color="#260091"/>
<stop offset="0.895833" stop-color="#4731FC"/>
<stop offset="0.979167" stop-color="#3221F1"/>
<stop offset="1" stop-color="#21C9F1"/>
</linearGradient>
<linearGradient id="paint34_linear_2_192" x1="1115.75" y1="-33.5287" x2="643.648" y2="814.345" gradientUnits="userSpaceOnUse">
<stop stop-color="#0963B8"/>
<stop offset="0.171875" stop-color="#6200AE"/>
<stop offset="0.317708" stop-color="#1900AE"/>
<stop offset="0.661458" stop-color="#260091"/>
<stop offset="0.895833" stop-color="#4731FC"/>
<stop offset="0.979167" stop-color="#3221F1"/>
<stop offset="1" stop-color="#21C9F1"/>
</linearGradient>
<linearGradient id="paint35_linear_2_192" x1="1113" y1="-26.6018" x2="648.305" y2="807.962" gradientUnits="userSpaceOnUse">
<stop stop-color="#0963B8"/>
<stop offset="0.171875" stop-color="#6200AE"/>
<stop offset="0.317708" stop-color="#1900AE"/>
<stop offset="0.661458" stop-color="#260091"/>
<stop offset="0.895833" stop-color="#4731FC"/>
<stop offset="0.979167" stop-color="#3221F1"/>
<stop offset="1" stop-color="#21C9F1"/>
</linearGradient>
<linearGradient id="paint36_linear_2_192" x1="1109.67" y1="-18.2305" x2="653.933" y2="800.251" gradientUnits="userSpaceOnUse">
<stop stop-color="#0963B8"/>
<stop offset="0.171875" stop-color="#6200AE"/>
<stop offset="0.317708" stop-color="#1900AE"/>
<stop offset="0.661458" stop-color="#260091"/>
<stop offset="0.895833" stop-color="#4731FC"/>
<stop offset="0.979167" stop-color="#3221F1"/>
<stop offset="1" stop-color="#21C9F1"/>
</linearGradient>
<linearGradient id="paint37_linear_2_192" x1="1106.92" y1="-11.3031" x2="658.589" y2="793.869" gradientUnits="userSpaceOnUse">
<stop stop-color="#0963B8"/>
<stop offset="0.171875" stop-color="#6200AE"/>
<stop offset="0.317708" stop-color="#1900AE"/>
<stop offset="0.661458" stop-color="#260091"/>
<stop offset="0.895833" stop-color="#4731FC"/>
<stop offset="0.979167" stop-color="#3221F1"/>
<stop offset="1" stop-color="#21C9F1"/>
</linearGradient>
<linearGradient id="paint38_linear_2_192" x1="1104.3" y1="-4.72478" x2="663.012" y2="787.808" gradientUnits="userSpaceOnUse">
<stop stop-color="#0963B8"/>
<stop offset="0.171875" stop-color="#6200AE"/>
<stop offset="0.317708" stop-color="#1900AE"/>
<stop offset="0.661458" stop-color="#260091"/>
<stop offset="0.895833" stop-color="#4731FC"/>
<stop offset="0.979167" stop-color="#3221F1"/>
<stop offset="1" stop-color="#21C9F1"/>
</linearGradient>
<linearGradient id="paint39_linear_2_192" x1="1101.14" y1="3.22462" x2="668.356" y2="780.485" gradientUnits="userSpaceOnUse">
<stop stop-color="#0963B8"/>
<stop offset="0.171875" stop-color="#6200AE"/>
<stop offset="0.317708" stop-color="#1900AE"/>
<stop offset="0.661458" stop-color="#260091"/>
<stop offset="0.895833" stop-color="#4731FC"/>
<stop offset="0.979167" stop-color="#3221F1"/>
<stop offset="1" stop-color="#21C9F1"/>
</linearGradient>
<linearGradient id="paint40_linear_2_192" x1="1098.51" y1="9.84757" x2="672.809" y2="774.381" gradientUnits="userSpaceOnUse">
<stop stop-color="#0963B8"/>
<stop offset="0.171875" stop-color="#6200AE"/>
<stop offset="0.317708" stop-color="#1900AE"/>
<stop offset="0.661458" stop-color="#260091"/>
<stop offset="0.895833" stop-color="#4731FC"/>
<stop offset="0.979167" stop-color="#3221F1"/>
<stop offset="1" stop-color="#21C9F1"/>
</linearGradient>
<linearGradient id="paint41_linear_2_192" x1="1096.03" y1="16.0945" x2="677.009" y2="768.626" gradientUnits="userSpaceOnUse">
<stop stop-color="#0963B8"/>
<stop offset="0.171875" stop-color="#6200AE"/>
<stop offset="0.317708" stop-color="#1900AE"/>
<stop offset="0.661458" stop-color="#260091"/>
<stop offset="0.895833" stop-color="#4731FC"/>
<stop offset="0.979167" stop-color="#3221F1"/>
<stop offset="1" stop-color="#21C9F1"/>
</linearGradient>
<linearGradient id="paint42_linear_2_192" x1="1093.03" y1="23.6419" x2="682.083" y2="761.673" gradientUnits="userSpaceOnUse">
<stop stop-color="#0963B8"/>
<stop offset="0.171875" stop-color="#6200AE"/>
<stop offset="0.317708" stop-color="#1900AE"/>
<stop offset="0.661458" stop-color="#260091"/>
<stop offset="0.895833" stop-color="#4731FC"/>
<stop offset="0.979167" stop-color="#3221F1"/>
<stop offset="1" stop-color="#21C9F1"/>
</linearGradient>
<linearGradient id="paint43_linear_2_192" x1="1090.35" y1="30.3844" x2="686.615" y2="755.465" gradientUnits="userSpaceOnUse">
<stop stop-color="#0963B8"/>
<stop offset="0.171875" stop-color="#6200AE"/>
<stop offset="0.317708" stop-color="#1900AE"/>
<stop offset="0.661458" stop-color="#260091"/>
<stop offset="0.895833" stop-color="#4731FC"/>
<stop offset="0.979167" stop-color="#3221F1"/>
<stop offset="1" stop-color="#21C9F1"/>
</linearGradient>
<linearGradient id="paint44_linear_2_192" x1="1087.99" y1="36.308" x2="690.597" y2="750.006" gradientUnits="userSpaceOnUse">
<stop stop-color="#0963B8"/>
<stop offset="0.171875" stop-color="#6200AE"/>
<stop offset="0.317708" stop-color="#1900AE"/>
<stop offset="0.661458" stop-color="#260091"/>
<stop offset="0.895833" stop-color="#4731FC"/>
<stop offset="0.979167" stop-color="#3221F1"/>
<stop offset="1" stop-color="#21C9F1"/>
</linearGradient>
<linearGradient id="paint45_linear_2_192" x1="1085.15" y1="43.4667" x2="695.41" y2="743.412" gradientUnits="userSpaceOnUse">
<stop stop-color="#0963B8"/>
<stop offset="0.171875" stop-color="#6200AE"/>
<stop offset="0.317708" stop-color="#1900AE"/>
<stop offset="0.661458" stop-color="#260091"/>
<stop offset="0.895833" stop-color="#4731FC"/>
<stop offset="0.979167" stop-color="#3221F1"/>
<stop offset="1" stop-color="#21C9F1"/>
</linearGradient>
<linearGradient id="paint46_linear_2_192" x1="1082.78" y1="49.4322" x2="699.421" y2="737.916" gradientUnits="userSpaceOnUse">
<stop stop-color="#0963B8"/>
<stop offset="0.171875" stop-color="#6200AE"/>
<stop offset="0.317708" stop-color="#1900AE"/>
<stop offset="0.661458" stop-color="#260091"/>
<stop offset="0.895833" stop-color="#4731FC"/>
<stop offset="0.979167" stop-color="#3221F1"/>
<stop offset="1" stop-color="#21C9F1"/>
</linearGradient>
<linearGradient id="paint47_linear_2_192" x1="1080.54" y1="55.0573" x2="703.202" y2="732.733" gradientUnits="userSpaceOnUse">
<stop stop-color="#0963B8"/>
<stop offset="0.171875" stop-color="#6200AE"/>
<stop offset="0.317708" stop-color="#1900AE"/>
<stop offset="0.661458" stop-color="#260091"/>
<stop offset="0.895833" stop-color="#4731FC"/>
<stop offset="0.979167" stop-color="#3221F1"/>
<stop offset="1" stop-color="#21C9F1"/>
</linearGradient>
<linearGradient id="paint48_linear_2_192" x1="1077.84" y1="61.854" x2="707.771" y2="726.471" gradientUnits="userSpaceOnUse">
<stop stop-color="#0963B8"/>
<stop offset="0.171875" stop-color="#6200AE"/>
<stop offset="0.317708" stop-color="#1900AE"/>
<stop offset="0.661458" stop-color="#260091"/>
<stop offset="0.895833" stop-color="#4731FC"/>
<stop offset="0.979167" stop-color="#3221F1"/>
<stop offset="1" stop-color="#21C9F1"/>
</linearGradient>
<linearGradient id="paint49_linear_2_192" x1="2473.3" y1="168.554" x2="1309.86" y2="409.157" gradientUnits="userSpaceOnUse">
<stop stop-color="#0963B8"/>
<stop offset="0.171875" stop-color="#6200AE"/>
<stop offset="0.317708" stop-color="#1900AE"/>
<stop offset="0.661458" stop-color="#260091"/>
<stop offset="0.895833" stop-color="#4731FC"/>
<stop offset="0.979167" stop-color="#3221F1"/>
<stop offset="1" stop-color="#21C9F1"/>
</linearGradient>
<linearGradient id="paint50_linear_2_192" x1="2465.74" y1="176.68" x2="1320.56" y2="413.506" gradientUnits="userSpaceOnUse">
<stop stop-color="#0963B8"/>
<stop offset="0.171875" stop-color="#6200AE"/>
<stop offset="0.317708" stop-color="#1900AE"/>
<stop offset="0.661458" stop-color="#260091"/>
<stop offset="0.895833" stop-color="#4731FC"/>
<stop offset="0.979167" stop-color="#3221F1"/>
<stop offset="1" stop-color="#21C9F1"/>
</linearGradient>
<linearGradient id="paint51_linear_2_192" x1="2456.6" y1="186.499" x2="1333.49" y2="418.762" gradientUnits="userSpaceOnUse">
<stop stop-color="#0963B8"/>
<stop offset="0.171875" stop-color="#6200AE"/>
<stop offset="0.317708" stop-color="#1900AE"/>
<stop offset="0.661458" stop-color="#260091"/>
<stop offset="0.895833" stop-color="#4731FC"/>
<stop offset="0.979167" stop-color="#3221F1"/>
<stop offset="1" stop-color="#21C9F1"/>
</linearGradient>
<linearGradient id="paint52_linear_2_192" x1="2448.99" y1="194.681" x2="1344.27" y2="423.141" gradientUnits="userSpaceOnUse">
<stop stop-color="#0963B8"/>
<stop offset="0.171875" stop-color="#6200AE"/>
<stop offset="0.317708" stop-color="#1900AE"/>
<stop offset="0.661458" stop-color="#260091"/>
<stop offset="0.895833" stop-color="#4731FC"/>
<stop offset="0.979167" stop-color="#3221F1"/>
<stop offset="1" stop-color="#21C9F1"/>
</linearGradient>
<linearGradient id="paint53_linear_2_192" x1="2441.81" y1="202.396" x2="1354.43" y2="427.269" gradientUnits="userSpaceOnUse">
<stop stop-color="#0963B8"/>
<stop offset="0.171875" stop-color="#6200AE"/>
<stop offset="0.317708" stop-color="#1900AE"/>
<stop offset="0.661458" stop-color="#260091"/>
<stop offset="0.895833" stop-color="#4731FC"/>
<stop offset="0.979167" stop-color="#3221F1"/>
<stop offset="1" stop-color="#21C9F1"/>
</linearGradient>
<linearGradient id="paint54_linear_2_192" x1="2433.14" y1="211.719" x2="1366.71" y2="432.259" gradientUnits="userSpaceOnUse">
<stop stop-color="#0963B8"/>
<stop offset="0.171875" stop-color="#6200AE"/>
<stop offset="0.317708" stop-color="#1900AE"/>
<stop offset="0.661458" stop-color="#260091"/>
<stop offset="0.895833" stop-color="#4731FC"/>
<stop offset="0.979167" stop-color="#3221F1"/>
<stop offset="1" stop-color="#21C9F1"/>
</linearGradient>
<linearGradient id="paint55_linear_2_192" x1="2425.39" y1="220.045" x2="1377.68" y2="436.715" gradientUnits="userSpaceOnUse">
<stop stop-color="#0963B8"/>
<stop offset="0.171875" stop-color="#6200AE"/>
<stop offset="0.317708" stop-color="#1900AE"/>
<stop offset="0.661458" stop-color="#260091"/>
<stop offset="0.895833" stop-color="#4731FC"/>
<stop offset="0.979167" stop-color="#3221F1"/>
<stop offset="1" stop-color="#21C9F1"/>
</linearGradient>
<linearGradient id="paint56_linear_2_192" x1="2418.58" y1="227.363" x2="1387.32" y2="440.632" gradientUnits="userSpaceOnUse">
<stop stop-color="#0963B8"/>
<stop offset="0.171875" stop-color="#6200AE"/>
<stop offset="0.317708" stop-color="#1900AE"/>
<stop offset="0.661458" stop-color="#260091"/>
<stop offset="0.895833" stop-color="#4731FC"/>
<stop offset="0.979167" stop-color="#3221F1"/>
<stop offset="1" stop-color="#21C9F1"/>
</linearGradient>
<linearGradient id="paint57_linear_2_192" x1="2410.35" y1="236.205" x2="1398.96" y2="445.364" gradientUnits="userSpaceOnUse">
<stop stop-color="#0963B8"/>
<stop offset="0.171875" stop-color="#6200AE"/>
<stop offset="0.317708" stop-color="#1900AE"/>
<stop offset="0.661458" stop-color="#260091"/>
<stop offset="0.895833" stop-color="#4731FC"/>
<stop offset="0.979167" stop-color="#3221F1"/>
<stop offset="1" stop-color="#21C9F1"/>
</linearGradient>
<linearGradient id="paint58_linear_2_192" x1="2403.5" y1="243.573" x2="1408.67" y2="449.307" gradientUnits="userSpaceOnUse">
<stop stop-color="#0963B8"/>
<stop offset="0.171875" stop-color="#6200AE"/>
<stop offset="0.317708" stop-color="#1900AE"/>
<stop offset="0.661458" stop-color="#260091"/>
<stop offset="0.895833" stop-color="#4731FC"/>
<stop offset="0.979167" stop-color="#3221F1"/>
<stop offset="1" stop-color="#21C9F1"/>
</linearGradient>
<linearGradient id="paint59_linear_2_192" x1="2397.03" y1="250.521" x2="1417.82" y2="453.026" gradientUnits="userSpaceOnUse">
<stop stop-color="#0963B8"/>
<stop offset="0.171875" stop-color="#6200AE"/>
<stop offset="0.317708" stop-color="#1900AE"/>
<stop offset="0.661458" stop-color="#260091"/>
<stop offset="0.895833" stop-color="#4731FC"/>
<stop offset="0.979167" stop-color="#3221F1"/>
<stop offset="1" stop-color="#21C9F1"/>
</linearGradient>
<linearGradient id="paint60_linear_2_192" x1="2389.22" y1="258.918" x2="1428.88" y2="457.52" gradientUnits="userSpaceOnUse">
<stop stop-color="#0963B8"/>
<stop offset="0.171875" stop-color="#6200AE"/>
<stop offset="0.317708" stop-color="#1900AE"/>
<stop offset="0.661458" stop-color="#260091"/>
<stop offset="0.895833" stop-color="#4731FC"/>
<stop offset="0.979167" stop-color="#3221F1"/>
<stop offset="1" stop-color="#21C9F1"/>
</linearGradient>
<linearGradient id="paint61_linear_2_192" x1="2382.76" y1="265.865" x2="1438.03" y2="461.238" gradientUnits="userSpaceOnUse">
<stop stop-color="#0963B8"/>
<stop offset="0.171875" stop-color="#6200AE"/>
<stop offset="0.317708" stop-color="#1900AE"/>
<stop offset="0.661458" stop-color="#260091"/>
<stop offset="0.895833" stop-color="#4731FC"/>
<stop offset="0.979167" stop-color="#3221F1"/>
<stop offset="1" stop-color="#21C9F1"/>
</linearGradient>
<linearGradient id="paint62_linear_2_192" x1="2376.62" y1="272.464" x2="1446.72" y2="464.77" gradientUnits="userSpaceOnUse">
<stop stop-color="#0963B8"/>
<stop offset="0.171875" stop-color="#6200AE"/>
<stop offset="0.317708" stop-color="#1900AE"/>
<stop offset="0.661458" stop-color="#260091"/>
<stop offset="0.895833" stop-color="#4731FC"/>
<stop offset="0.979167" stop-color="#3221F1"/>
<stop offset="1" stop-color="#21C9F1"/>
</linearGradient>
<linearGradient id="paint63_linear_2_192" x1="2369.2" y1="280.436" x2="1457.22" y2="469.036" gradientUnits="userSpaceOnUse">
<stop stop-color="#0963B8"/>
<stop offset="0.171875" stop-color="#6200AE"/>
<stop offset="0.317708" stop-color="#1900AE"/>
<stop offset="0.661458" stop-color="#260091"/>
<stop offset="0.895833" stop-color="#4731FC"/>
<stop offset="0.979167" stop-color="#3221F1"/>
<stop offset="1" stop-color="#21C9F1"/>
</linearGradient>
<linearGradient id="paint64_linear_2_192" x1="2363.02" y1="287.081" x2="1465.97" y2="472.593" gradientUnits="userSpaceOnUse">
<stop stop-color="#0963B8"/>
<stop offset="0.171875" stop-color="#6200AE"/>
<stop offset="0.317708" stop-color="#1900AE"/>
<stop offset="0.661458" stop-color="#260091"/>
<stop offset="0.895833" stop-color="#4731FC"/>
<stop offset="0.979167" stop-color="#3221F1"/>
<stop offset="1" stop-color="#21C9F1"/>
</linearGradient>
<linearGradient id="paint65_linear_2_192" x1="2357.19" y1="293.346" x2="1474.22" y2="475.946" gradientUnits="userSpaceOnUse">
<stop stop-color="#0963B8"/>
<stop offset="0.171875" stop-color="#6200AE"/>
<stop offset="0.317708" stop-color="#1900AE"/>
<stop offset="0.661458" stop-color="#260091"/>
<stop offset="0.895833" stop-color="#4731FC"/>
<stop offset="0.979167" stop-color="#3221F1"/>
<stop offset="1" stop-color="#21C9F1"/>
</linearGradient>
<linearGradient id="paint66_linear_2_192" x1="2350.14" y1="300.916" x2="1484.19" y2="479.997" gradientUnits="userSpaceOnUse">
<stop stop-color="#0963B8"/>
<stop offset="0.171875" stop-color="#6200AE"/>
<stop offset="0.317708" stop-color="#1900AE"/>
<stop offset="0.661458" stop-color="#260091"/>
<stop offset="0.895833" stop-color="#4731FC"/>
<stop offset="0.979167" stop-color="#3221F1"/>
<stop offset="1" stop-color="#21C9F1"/>
</linearGradient>
<linearGradient id="paint67_linear_2_192" x1="2343.85" y1="307.677" x2="1493.1" y2="483.616" gradientUnits="userSpaceOnUse">
<stop stop-color="#0963B8"/>
<stop offset="0.171875" stop-color="#6200AE"/>
<stop offset="0.317708" stop-color="#1900AE"/>
<stop offset="0.661458" stop-color="#260091"/>
<stop offset="0.895833" stop-color="#4731FC"/>
<stop offset="0.979167" stop-color="#3221F1"/>
<stop offset="1" stop-color="#21C9F1"/>
</linearGradient>
<linearGradient id="paint68_linear_2_192" x1="2338.32" y1="313.619" x2="1500.92" y2="486.796" gradientUnits="userSpaceOnUse">
<stop stop-color="#0963B8"/>
<stop offset="0.171875" stop-color="#6200AE"/>
<stop offset="0.317708" stop-color="#1900AE"/>
<stop offset="0.661458" stop-color="#260091"/>
<stop offset="0.895833" stop-color="#4731FC"/>
<stop offset="0.979167" stop-color="#3221F1"/>
<stop offset="1" stop-color="#21C9F1"/>
</linearGradient>
<linearGradient id="paint69_linear_2_192" x1="2331.64" y1="320.799" x2="1510.38" y2="490.639" gradientUnits="userSpaceOnUse">
<stop stop-color="#0963B8"/>
<stop offset="0.171875" stop-color="#6200AE"/>
<stop offset="0.317708" stop-color="#1900AE"/>
<stop offset="0.661458" stop-color="#260091"/>
<stop offset="0.895833" stop-color="#4731FC"/>
<stop offset="0.979167" stop-color="#3221F1"/>
<stop offset="1" stop-color="#21C9F1"/>
</linearGradient>
<linearGradient id="paint70_linear_2_192" x1="2326.07" y1="326.781" x2="1518.26" y2="493.84" gradientUnits="userSpaceOnUse">
<stop stop-color="#0963B8"/>
<stop offset="0.171875" stop-color="#6200AE"/>
<stop offset="0.317708" stop-color="#1900AE"/>
<stop offset="0.661458" stop-color="#260091"/>
<stop offset="0.895833" stop-color="#4731FC"/>
<stop offset="0.979167" stop-color="#3221F1"/>
<stop offset="1" stop-color="#21C9F1"/>
</linearGradient>
<linearGradient id="paint71_linear_2_192" x1="2320.82" y1="332.425" x2="1525.69" y2="496.861" gradientUnits="userSpaceOnUse">
<stop stop-color="#0963B8"/>
<stop offset="0.171875" stop-color="#6200AE"/>
<stop offset="0.317708" stop-color="#1900AE"/>
<stop offset="0.661458" stop-color="#260091"/>
<stop offset="0.895833" stop-color="#4731FC"/>
<stop offset="0.979167" stop-color="#3221F1"/>
<stop offset="1" stop-color="#21C9F1"/>
</linearGradient>
<linearGradient id="paint72_linear_2_192" x1="2314.48" y1="339.242" x2="1534.67" y2="500.509" gradientUnits="userSpaceOnUse">
<stop stop-color="#0963B8"/>
<stop offset="0.171875" stop-color="#6200AE"/>
<stop offset="0.317708" stop-color="#1900AE"/>
<stop offset="0.661458" stop-color="#260091"/>
<stop offset="0.895833" stop-color="#4731FC"/>
<stop offset="0.979167" stop-color="#3221F1"/>
<stop offset="1" stop-color="#21C9F1"/>
</linearGradient>
<linearGradient id="paint73_linear_2_192" x1="2308.23" y1="345.964" x2="1543.52" y2="504.107" gradientUnits="userSpaceOnUse">
<stop stop-color="#0963B8"/>
<stop offset="0.171875" stop-color="#6200AE"/>
<stop offset="0.317708" stop-color="#1900AE"/>
<stop offset="0.661458" stop-color="#260091"/>
<stop offset="0.895833" stop-color="#4731FC"/>
<stop offset="0.979167" stop-color="#3221F1"/>
<stop offset="1" stop-color="#21C9F1"/>
</linearGradient>
<linearGradient id="paint74_linear_2_192" x1="2303.26" y1="351.303" x2="1550.56" y2="506.963" gradientUnits="userSpaceOnUse">
<stop stop-color="#0963B8"/>
<stop offset="0.171875" stop-color="#6200AE"/>
<stop offset="0.317708" stop-color="#1900AE"/>
<stop offset="0.661458" stop-color="#260091"/>
<stop offset="0.895833" stop-color="#4731FC"/>
<stop offset="0.979167" stop-color="#3221F1"/>
<stop offset="1" stop-color="#21C9F1"/>
</linearGradient>
<linearGradient id="paint75_linear_2_192" x1="2297.25" y1="357.759" x2="1559.06" y2="510.42" gradientUnits="userSpaceOnUse">
<stop stop-color="#0963B8"/>
<stop offset="0.171875" stop-color="#6200AE"/>
<stop offset="0.317708" stop-color="#1900AE"/>
<stop offset="0.661458" stop-color="#260091"/>
<stop offset="0.895833" stop-color="#4731FC"/>
<stop offset="0.979167" stop-color="#3221F1"/>
<stop offset="1" stop-color="#21C9F1"/>
</linearGradient>
<linearGradient id="paint76_linear_2_192" x1="2292.25" y1="363.136" x2="1566.14" y2="513.297" gradientUnits="userSpaceOnUse">
<stop stop-color="#0963B8"/>
<stop offset="0.171875" stop-color="#6200AE"/>
<stop offset="0.317708" stop-color="#1900AE"/>
<stop offset="0.661458" stop-color="#260091"/>
<stop offset="0.895833" stop-color="#4731FC"/>
<stop offset="0.979167" stop-color="#3221F1"/>
<stop offset="1" stop-color="#21C9F1"/>
</linearGradient>
<linearGradient id="paint77_linear_2_192" x1="2287.53" y1="368.207" x2="1572.82" y2="516.011" gradientUnits="userSpaceOnUse">
<stop stop-color="#0963B8"/>
<stop offset="0.171875" stop-color="#6200AE"/>
<stop offset="0.317708" stop-color="#1900AE"/>
<stop offset="0.661458" stop-color="#260091"/>
<stop offset="0.895833" stop-color="#4731FC"/>
<stop offset="0.979167" stop-color="#3221F1"/>
<stop offset="1" stop-color="#21C9F1"/>
</linearGradient>
<linearGradient id="paint78_linear_2_192" x1="2281.83" y1="374.336" x2="1580.89" y2="519.292" gradientUnits="userSpaceOnUse">
<stop stop-color="#0963B8"/>
<stop offset="0.171875" stop-color="#6200AE"/>
<stop offset="0.317708" stop-color="#1900AE"/>
<stop offset="0.661458" stop-color="#260091"/>
<stop offset="0.895833" stop-color="#4731FC"/>
<stop offset="0.979167" stop-color="#3221F1"/>
<stop offset="1" stop-color="#21C9F1"/>
</linearGradient>
<linearGradient id="paint79_linear_2_192" x1="2276.74" y1="379.808" x2="1588.1" y2="522.22" gradientUnits="userSpaceOnUse">
<stop stop-color="#0963B8"/>
<stop offset="0.171875" stop-color="#6200AE"/>
<stop offset="0.317708" stop-color="#1900AE"/>
<stop offset="0.661458" stop-color="#260091"/>
<stop offset="0.895833" stop-color="#4731FC"/>
<stop offset="0.979167" stop-color="#3221F1"/>
<stop offset="1" stop-color="#21C9F1"/>
</linearGradient>
<linearGradient id="paint80_linear_2_192" x1="2272.26" y1="384.618" x2="1594.43" y2="524.795" gradientUnits="userSpaceOnUse">
<stop stop-color="#0963B8"/>
<stop offset="0.171875" stop-color="#6200AE"/>
<stop offset="0.317708" stop-color="#1900AE"/>
<stop offset="0.661458" stop-color="#260091"/>
<stop offset="0.895833" stop-color="#4731FC"/>
<stop offset="0.979167" stop-color="#3221F1"/>
<stop offset="1" stop-color="#21C9F1"/>
</linearGradient>
<linearGradient id="paint81_linear_2_192" x1="2266.85" y1="390.429" x2="1602.09" y2="527.905" gradientUnits="userSpaceOnUse">
<stop stop-color="#0963B8"/>
<stop offset="0.171875" stop-color="#6200AE"/>
<stop offset="0.317708" stop-color="#1900AE"/>
<stop offset="0.661458" stop-color="#260091"/>
<stop offset="0.895833" stop-color="#4731FC"/>
<stop offset="0.979167" stop-color="#3221F1"/>
<stop offset="1" stop-color="#21C9F1"/>
</linearGradient>
<linearGradient id="paint82_linear_2_192" x1="2262.35" y1="395.272" x2="1608.47" y2="530.497" gradientUnits="userSpaceOnUse">
<stop stop-color="#0963B8"/>
<stop offset="0.171875" stop-color="#6200AE"/>
<stop offset="0.317708" stop-color="#1900AE"/>
<stop offset="0.661458" stop-color="#260091"/>
<stop offset="0.895833" stop-color="#4731FC"/>
<stop offset="0.979167" stop-color="#3221F1"/>
<stop offset="1" stop-color="#21C9F1"/>
</linearGradient>
<linearGradient id="paint83_linear_2_192" x1="2258.1" y1="399.839" x2="1614.48" y2="532.94" gradientUnits="userSpaceOnUse">
<stop stop-color="#0963B8"/>
<stop offset="0.171875" stop-color="#6200AE"/>
<stop offset="0.317708" stop-color="#1900AE"/>
<stop offset="0.661458" stop-color="#260091"/>
<stop offset="0.895833" stop-color="#4731FC"/>
<stop offset="0.979167" stop-color="#3221F1"/>
<stop offset="1" stop-color="#21C9F1"/>
</linearGradient>
<linearGradient id="paint84_linear_2_192" x1="2252.96" y1="405.358" x2="1621.75" y2="535.895" gradientUnits="userSpaceOnUse">
<stop stop-color="#0963B8"/>
<stop offset="0.171875" stop-color="#6200AE"/>
<stop offset="0.317708" stop-color="#1900AE"/>
<stop offset="0.661458" stop-color="#260091"/>
<stop offset="0.895833" stop-color="#4731FC"/>
<stop offset="0.979167" stop-color="#3221F1"/>
<stop offset="1" stop-color="#21C9F1"/>
</linearGradient>
<linearGradient id="paint85_linear_2_192" x1="2248.71" y1="409.924" x2="1627.77" y2="538.338" gradientUnits="userSpaceOnUse">
<stop stop-color="#0963B8"/>
<stop offset="0.171875" stop-color="#6200AE"/>
<stop offset="0.317708" stop-color="#1900AE"/>
<stop offset="0.661458" stop-color="#260091"/>
<stop offset="0.895833" stop-color="#4731FC"/>
<stop offset="0.979167" stop-color="#3221F1"/>
<stop offset="1" stop-color="#21C9F1"/>
</linearGradient>
<linearGradient id="paint86_linear_2_192" x1="2244.68" y1="414.261" x2="1633.48" y2="540.659" gradientUnits="userSpaceOnUse">
<stop stop-color="#0963B8"/>
<stop offset="0.171875" stop-color="#6200AE"/>
<stop offset="0.317708" stop-color="#1900AE"/>
<stop offset="0.661458" stop-color="#260091"/>
<stop offset="0.895833" stop-color="#4731FC"/>
<stop offset="0.979167" stop-color="#3221F1"/>
<stop offset="1" stop-color="#21C9F1"/>
</linearGradient>
<linearGradient id="paint87_linear_2_192" x1="2239.8" y1="419.501" x2="1640.38" y2="543.463" gradientUnits="userSpaceOnUse">
<stop stop-color="#0963B8"/>
<stop offset="0.171875" stop-color="#6200AE"/>
<stop offset="0.317708" stop-color="#1900AE"/>
<stop offset="0.661458" stop-color="#260091"/>
<stop offset="0.895833" stop-color="#4731FC"/>
<stop offset="0.979167" stop-color="#3221F1"/>
<stop offset="1" stop-color="#21C9F1"/>
</linearGradient>
<linearGradient id="paint88_linear_2_192" x1="2235.74" y1="423.867" x2="1646.13" y2="545.8" gradientUnits="userSpaceOnUse">
<stop stop-color="#0963B8"/>
<stop offset="0.171875" stop-color="#6200AE"/>
<stop offset="0.317708" stop-color="#1900AE"/>
<stop offset="0.661458" stop-color="#260091"/>
<stop offset="0.895833" stop-color="#4731FC"/>
<stop offset="0.979167" stop-color="#3221F1"/>
<stop offset="1" stop-color="#21C9F1"/>
</linearGradient>
<linearGradient id="paint89_linear_2_192" x1="2231.91" y1="427.985" x2="1651.56" y2="548.004" gradientUnits="userSpaceOnUse">
<stop stop-color="#0963B8"/>
<stop offset="0.171875" stop-color="#6200AE"/>
<stop offset="0.317708" stop-color="#1900AE"/>
<stop offset="0.661458" stop-color="#260091"/>
<stop offset="0.895833" stop-color="#4731FC"/>
<stop offset="0.979167" stop-color="#3221F1"/>
<stop offset="1" stop-color="#21C9F1"/>
</linearGradient>
<linearGradient id="paint90_linear_2_192" x1="2227.28" y1="432.961" x2="1658.11" y2="550.667" gradientUnits="userSpaceOnUse">
<stop stop-color="#0963B8"/>
<stop offset="0.171875" stop-color="#6200AE"/>
<stop offset="0.317708" stop-color="#1900AE"/>
<stop offset="0.661458" stop-color="#260091"/>
<stop offset="0.895833" stop-color="#4731FC"/>
<stop offset="0.979167" stop-color="#3221F1"/>
<stop offset="1" stop-color="#21C9F1"/>
</linearGradient>
<linearGradient id="paint91_linear_2_192" x1="2223.14" y1="437.406" x2="1663.96" y2="553.047" gradientUnits="userSpaceOnUse">
<stop stop-color="#0963B8"/>
<stop offset="0.171875" stop-color="#6200AE"/>
<stop offset="0.317708" stop-color="#1900AE"/>
<stop offset="0.661458" stop-color="#260091"/>
<stop offset="0.895833" stop-color="#4731FC"/>
<stop offset="0.979167" stop-color="#3221F1"/>
<stop offset="1" stop-color="#21C9F1"/>
</linearGradient>
<linearGradient id="paint92_linear_2_192" x1="2219.51" y1="441.311" x2="1669.11" y2="555.136" gradientUnits="userSpaceOnUse">
<stop stop-color="#0963B8"/>
<stop offset="0.171875" stop-color="#6200AE"/>
<stop offset="0.317708" stop-color="#1900AE"/>
<stop offset="0.661458" stop-color="#260091"/>
<stop offset="0.895833" stop-color="#4731FC"/>
<stop offset="0.979167" stop-color="#3221F1"/>
<stop offset="1" stop-color="#21C9F1"/>
</linearGradient>
<linearGradient id="paint93_linear_2_192" x1="2215.12" y1="446.031" x2="1675.32" y2="557.662" gradientUnits="userSpaceOnUse">
<stop stop-color="#0963B8"/>
<stop offset="0.171875" stop-color="#6200AE"/>
<stop offset="0.317708" stop-color="#1900AE"/>
<stop offset="0.661458" stop-color="#260091"/>
<stop offset="0.895833" stop-color="#4731FC"/>
<stop offset="0.979167" stop-color="#3221F1"/>
<stop offset="1" stop-color="#21C9F1"/>
</linearGradient>
<linearGradient id="paint94_linear_2_192" x1="2211.46" y1="449.963" x2="1680.5" y2="559.767" gradientUnits="userSpaceOnUse">
<stop stop-color="#0963B8"/>
<stop offset="0.171875" stop-color="#6200AE"/>
<stop offset="0.317708" stop-color="#1900AE"/>
<stop offset="0.661458" stop-color="#260091"/>
<stop offset="0.895833" stop-color="#4731FC"/>
<stop offset="0.979167" stop-color="#3221F1"/>
<stop offset="1" stop-color="#21C9F1"/>
</linearGradient>
<linearGradient id="paint95_linear_2_192" x1="2208.01" y1="453.671" x2="1685.39" y2="561.751" gradientUnits="userSpaceOnUse">
<stop stop-color="#0963B8"/>
<stop offset="0.171875" stop-color="#6200AE"/>
<stop offset="0.317708" stop-color="#1900AE"/>
<stop offset="0.661458" stop-color="#260091"/>
<stop offset="0.895833" stop-color="#4731FC"/>
<stop offset="0.979167" stop-color="#3221F1"/>
<stop offset="1" stop-color="#21C9F1"/>
</linearGradient>
<linearGradient id="paint96_linear_2_192" x1="2203.84" y1="458.152" x2="1691.29" y2="564.149" gradientUnits="userSpaceOnUse">
<stop stop-color="#0963B8"/>
<stop offset="0.171875" stop-color="#6200AE"/>
<stop offset="0.317708" stop-color="#1900AE"/>
<stop offset="0.661458" stop-color="#260091"/>
<stop offset="0.895833" stop-color="#4731FC"/>
<stop offset="0.979167" stop-color="#3221F1"/>
<stop offset="1" stop-color="#21C9F1"/>
</linearGradient>
</defs>
</svg>
