<svg width="34" height="29" viewBox="0 0 34 29" fill="none" xmlns="http://www.w3.org/2000/svg">
<path d="M30.3513 13.9178V4.29211C30.3513 3.98775 30.1494 3.71996 29.8562 3.63606L20.3039 0.907846C20.1796 0.87287 20.0503 0.873381 19.9294 0.907846L10.5643 3.58261L1.19927 0.907846C0.994067 0.849915 0.771464 0.890518 0.60093 1.01911C0.430331 1.14833 0.329712 1.35013 0.329712 1.56396V22.0254C0.329712 22.3298 0.53159 22.5976 0.824812 22.6815L10.3771 25.4097C10.4384 25.427 10.5017 25.4357 10.5643 25.4357C10.6277 25.4357 10.6908 25.427 10.7516 25.4097L20.1166 22.7349L24.37 23.9496C25.555 25.8837 26.8242 27.5624 27.0804 27.8967C27.2096 28.0652 27.4095 28.1638 27.6221 28.1638C27.8346 28.1638 28.0345 28.0652 28.1638 27.8967C28.6668 27.24 33.0805 21.4026 33.0805 18.6151C33.0805 16.6047 31.9749 14.8644 30.3513 13.9178ZM9.88201 23.8491L1.69431 21.5112V2.46848L9.88201 4.8064V23.8491ZM19.4344 21.5107L11.2467 23.8492V4.80684L19.4344 2.46835V21.5107ZM20.799 21.5112V2.46848L28.9867 4.8064V13.3526C28.5479 13.2386 28.096 13.1588 27.6221 13.1588C24.6123 13.1588 22.1636 15.6066 22.1636 18.6152C22.1636 19.5776 22.6943 20.9041 23.4039 22.2549L20.799 21.5112ZM27.6221 26.3402C26.1222 24.2774 23.5282 20.3516 23.5282 18.6151C23.5282 16.3585 25.3646 14.5229 27.6221 14.5229C29.8796 14.5229 31.7159 16.3585 31.7159 18.6151C31.7159 20.3516 29.122 24.2774 27.6221 26.3402Z" fill="#A4A7E2" fill-opacity="0.4"/>
<path d="M27.6221 17.251C26.8699 17.251 26.2575 17.8632 26.2575 18.6151C26.2575 19.3671 26.8699 19.9792 27.6221 19.9792C28.3743 19.9792 28.9867 19.3671 28.9867 18.6151C28.9867 17.8631 28.3743 17.251 27.6221 17.251ZM27.6227 18.6151C27.6227 18.6151 27.6221 18.6145 27.6221 18.6138L28.3044 18.6151H27.6227Z" fill="#A4A7E2" fill-opacity="0.4"/>
</svg>
